<?xml version="1.0" encoding="UTF-8" standalone="no"?>
<!DOCTYPE svg PUBLIC "-//W3C//DTD SVG 1.1//EN"
 "http://www.w3.org/Graphics/SVG/1.1/DTD/svg11.dtd">
<!-- Generated by graphviz version 2.38.0 (20140413.2041)
 -->
<!-- Title: G Pages: 1 -->
<svg width="936pt" height="227pt"
 viewBox="0.00 0.00 936.00 227.35" xmlns="http://www.w3.org/2000/svg" xmlns:xlink="http://www.w3.org/1999/xlink">
<g id="graph0" class="graph" transform="scale(0.857929 0.857929) rotate(0) translate(4 261)">
<title>G</title>
<polygon fill="white" stroke="none" points="-4,4 -4,-261 1087,-261 1087,4 -4,4"/>
<g id="clust1" class="cluster"><title>cluster_0</title>
<polygon fill="lightgrey" stroke="lightgrey" points="408,-8 408,-83 742,-83 742,-8 408,-8"/>
<text text-anchor="middle" x="575" y="-15.8" font-family="Times New Roman,serif" font-size="14.00">Lecturer of Computer Science and Operational Research</text>
</g>
<g id="clust5" class="cluster"><title>cluster_4</title>
<polygon fill="lightgrey" stroke="lightgrey" points="177,-91 177,-166 382,-166 382,-91 177,-91"/>
<text text-anchor="middle" x="279.5" y="-98.8" font-family="Times New Roman,serif" font-size="14.00">PhD &#45; Data &amp; Computer Scientist</text>
</g>
<g id="clust6" class="cluster"><title>cluster_5</title>
<polygon fill="lightgrey" stroke="lightgrey" points="390,-91 390,-166 544,-166 544,-91 390,-91"/>
<text text-anchor="middle" x="467" y="-98.8" font-family="Times New Roman,serif" font-size="14.00">University of Essex</text>
</g>
<g id="clust4" class="cluster"><title>cluster_3</title>
<polygon fill="lightgrey" stroke="lightgrey" points="8,-174 8,-249 217,-249 217,-174 8,-174"/>
<text text-anchor="middle" x="112.5" y="-181.8" font-family="Times New Roman,serif" font-size="14.00">Queen Mary University of London</text>
</g>
<g id="clust2" class="cluster"><title>cluster_1</title>
<polygon fill="lightgrey" stroke="lightgrey" points="89,-8 89,-83 393,-83 393,-8 89,-8"/>
<text text-anchor="middle" x="241" y="-15.8" font-family="Times New Roman,serif" font-size="14.00">University of Nottingham</text>
</g>
<g id="clust3" class="cluster"><title>cluster_2</title>
<polygon fill="lightgrey" stroke="lightgrey" points="947,-8 947,-166 1075,-166 1075,-8 947,-8"/>
<text text-anchor="middle" x="1011" y="-15.8" font-family="Times New Roman,serif" font-size="14.00">University of Exeter</text>
</g>
<g id="clust7" class="cluster"><title>cluster_6</title>
<polygon fill="lightgrey" stroke="lightgrey" points="636,-91 636,-166 939,-166 939,-91 636,-91"/>
<text text-anchor="middle" x="787.5" y="-98.8" font-family="Times New Roman,serif" font-size="14.00">Nanjing University of Aeronautics and Astronautics</text>
</g>
<g id="clust8" class="cluster"><title>cluster_7</title>
<polygon fill="lightgrey" stroke="lightgrey" points="53,-91 53,-166 169,-166 169,-91 53,-91"/>
<text text-anchor="middle" x="111" y="-98.8" font-family="Times New Roman,serif" font-size="14.00">Cardiff University</text>
</g>
<!-- Ender zcan -->
<g id="node1" class="node"><title>Ender zcan</title>
<ellipse fill="lightgrey" stroke="black" cx="467" cy="-57" rx="45.4614" ry="18"/>
<text text-anchor="middle" x="467" y="-53.6" font-family="Times New Roman,serif" font-size="13.00">Ender zcan</text>
</g>
<!-- Andrew J Parkes -->
<g id="node2" class="node"><title>Andrew J Parkes</title>
<ellipse fill="lightgrey" stroke="black" cx="321" cy="-57" rx="63.5992" ry="18"/>
<text text-anchor="middle" x="321" y="-53.6" font-family="Times New Roman,serif" font-size="13.00">Andrew J Parkes</text>
</g>
<!-- Ender zcan&#45;&#45;Andrew J Parkes -->
<g id="edge2" class="edge"><title>Ender zcan&#45;&#45;Andrew J Parkes</title>
<path fill="none" stroke="black" stroke-width="2" d="M438.155,-43C416.133,-43 385.523,-43 361.114,-43"/>
</g>
<!-- Ender zcan&#45;&#45;Andrew J Parkes -->
<g id="edge6" class="edge"><title>Ender zcan&#45;&#45;Andrew J Parkes</title>
<path fill="none" stroke="black" stroke-width="2" d="M421.605,-55C409.886,-55 397.054,-55 384.593,-55"/>
</g>
<!-- Ender zcan&#45;&#45;Andrew J Parkes -->
<g id="edge10" class="edge"><title>Ender zcan&#45;&#45;Andrew J Parkes</title>
<path fill="none" stroke="black" stroke-width="2" d="M423.985,-51C410.611,-51 395.611,-51 381.286,-51"/>
</g>
<!-- Ender zcan&#45;&#45;Andrew J Parkes -->
<g id="edge14" class="edge"><title>Ender zcan&#45;&#45;Andrew J Parkes</title>
<path fill="none" stroke="black" stroke-width="2" d="M429.021,-47C412.292,-47 392.347,-47 374.176,-47"/>
</g>
<!-- Edmund Kieran Burke -->
<g id="node6" class="node"><title>Edmund Kieran Burke</title>
<ellipse fill="lightgrey" stroke="black" cx="112" cy="-223" rx="81.4725" ry="18"/>
<text text-anchor="middle" x="112" y="-219.6" font-family="Times New Roman,serif" font-size="13.00">Edmund Kieran Burke</text>
</g>
<!-- Ender zcan&#45;&#45;Edmund Kieran Burke -->
<g id="edge1" class="edge"><title>Ender zcan&#45;&#45;Edmund Kieran Burke</title>
<path fill="none" stroke="black" stroke-width="2" d="M449.507,-73.7658C449.507,-84.3362 449.507,-96 449.507,-96 449.507,-96 186.917,-96 186.917,-96 186.917,-96 186.917,-188.942 186.917,-215.808"/>
</g>
<!-- Ender zcan&#45;&#45;Edmund Kieran Burke -->
<g id="edge5" class="edge"><title>Ender zcan&#45;&#45;Edmund Kieran Burke</title>
<path fill="none" stroke="black" stroke-width="2" d="M435.513,-70.1424C435.513,-77.8154 435.513,-86 435.513,-86 435.513,-86 173.778,-86 173.778,-86 173.778,-86 173.778,-177.313 173.778,-210.842"/>
</g>
<!-- Ender zcan&#45;&#45;Edmund Kieran Burke -->
<g id="edge9" class="edge"><title>Ender zcan&#45;&#45;Edmund Kieran Burke</title>
<path fill="none" stroke="black" stroke-width="2" d="M442.51,-72.4083C442.51,-81.4043 442.51,-91 442.51,-91 442.51,-91 180.347,-91 180.347,-91 180.347,-91 180.347,-182.38 180.347,-213.079"/>
</g>
<!-- Ender zcan&#45;&#45;Edmund Kieran Burke -->
<g id="edge13" class="edge"><title>Ender zcan&#45;&#45;Edmund Kieran Burke</title>
<path fill="none" stroke="black" stroke-width="2" d="M428.516,-66.7617C428.516,-73.4063 428.516,-81 428.516,-81 428.516,-81 167.208,-81 167.208,-81 167.208,-81 167.208,-174.292 167.208,-209.641"/>
</g>
<!-- Shahriar Asta -->
<g id="node7" class="node"><title>Shahriar Asta</title>
<ellipse fill="lightgrey" stroke="black" cx="321" cy="-140" rx="53.1217" ry="18"/>
<text text-anchor="middle" x="321" y="-136.6" font-family="Times New Roman,serif" font-size="13.00">Shahriar Asta</text>
</g>
<!-- Ender zcan&#45;&#45;Shahriar Asta -->
<g id="edge3" class="edge"><title>Ender zcan&#45;&#45;Shahriar Asta</title>
<path fill="none" stroke="black" stroke-width="2" d="M456.504,-74.527C456.504,-87.1623 456.504,-102 456.504,-102 456.504,-102 326.896,-102 326.896,-102 326.896,-102 326.896,-112.103 326.896,-121.89"/>
</g>
<!-- Ender zcan&#45;&#45;Shahriar Asta -->
<g id="edge7" class="edge"><title>Ender zcan&#45;&#45;Shahriar Asta</title>
<path fill="none" stroke="black" stroke-width="2" d="M470.499,-75.0091C470.499,-91.0494 470.499,-112 470.499,-112 470.499,-112 350.478,-112 350.478,-112 350.478,-112 350.478,-118.359 350.478,-125.016"/>
</g>
<!-- Ender zcan&#45;&#45;Shahriar Asta -->
<g id="edge11" class="edge"><title>Ender zcan&#45;&#45;Shahriar Asta</title>
<path fill="none" stroke="black" stroke-width="2" d="M463.501,-75.0511C463.501,-89.373 463.501,-107 463.501,-107 463.501,-107 338.687,-107 338.687,-107 338.687,-107 338.687,-114.742 338.687,-122.727"/>
</g>
<!-- Ender zcan&#45;&#45;Shahriar Asta -->
<g id="edge15" class="edge"><title>Ender zcan&#45;&#45;Shahriar Asta</title>
<path fill="none" stroke="black" stroke-width="2" d="M477.496,-74.6775C477.496,-92.376 477.496,-117 477.496,-117 477.496,-117 362.27,-117 362.27,-117 362.27,-117 362.27,-122.75 362.27,-128.5"/>
</g>
<!-- Mustafa Msr -->
<g id="node9" class="node"><title>Mustafa Msr</title>
<ellipse fill="lightgrey" stroke="black" cx="698" cy="-140" rx="51.5957" ry="18"/>
<text text-anchor="middle" x="698" y="-136.6" font-family="Times New Roman,serif" font-size="13.00">Mustafa Msr</text>
</g>
<!-- Ender zcan&#45;&#45;Mustafa Msr -->
<g id="edge4" class="edge"><title>Ender zcan&#45;&#45;Mustafa Msr</title>
<path fill="none" stroke="black" stroke-width="2" d="M512.115,-54C581.973,-54 708.359,-54 708.359,-54 708.359,-54 708.359,-96.9908 708.359,-122.181"/>
</g>
<!-- Ender zcan&#45;&#45;Mustafa Msr -->
<g id="edge8" class="edge"><title>Ender zcan&#45;&#45;Mustafa Msr</title>
<path fill="none" stroke="black" stroke-width="2" d="M504.829,-47C577.406,-47 729.078,-47 729.078,-47 729.078,-47 729.078,-99.3125 729.078,-125.469"/>
</g>
<!-- Ender zcan&#45;&#45;Mustafa Msr -->
<g id="edge12" class="edge"><title>Ender zcan&#45;&#45;Mustafa Msr</title>
<path fill="none" stroke="black" stroke-width="2" d="M511.384,-61C575.815,-61 687.641,-61 687.641,-61 687.641,-61 687.641,-98.7654 687.641,-122.074"/>
</g>
<!-- Ender zcan&#45;&#45;Mustafa Msr -->
<g id="edge16" class="edge"><title>Ender zcan&#45;&#45;Mustafa Msr</title>
<path fill="none" stroke="black" stroke-width="2" d="M503.204,-68C560.816,-68 666.922,-68 666.922,-68 666.922,-68 666.922,-104.391 666.922,-125.43"/>
</g>
<!-- Andrew J Parkes&#45;&#45;Edmund Kieran Burke -->
<g id="edge17" class="edge"><title>Andrew J Parkes&#45;&#45;Edmund Kieran Burke</title>
<path fill="none" stroke="black" stroke-width="2" d="M376.208,-66.1127C376.208,-99.0507 376.208,-210 376.208,-210 376.208,-210 246.313,-210 168.679,-210"/>
</g>
<!-- Andrew J Parkes&#45;&#45;Edmund Kieran Burke -->
<g id="edge21" class="edge"><title>Andrew J Parkes&#45;&#45;Edmund Kieran Burke</title>
<path fill="none" stroke="black" stroke-width="2" d="M378.356,-65.0015C378.356,-96.995 378.356,-214 378.356,-214 378.356,-214 261.589,-214 182.679,-214"/>
</g>
<!-- Andrew J Parkes&#45;&#45;Edmund Kieran Burke -->
<g id="edge25" class="edge"><title>Andrew J Parkes&#45;&#45;Edmund Kieran Burke</title>
<path fill="none" stroke="black" stroke-width="2" d="M380.504,-63.5512C380.504,-93.8589 380.504,-219 380.504,-219 380.504,-219 270.645,-219 191.47,-219"/>
</g>
<!-- Andrew J Parkes&#45;&#45;Edmund Kieran Burke -->
<g id="edge29" class="edge"><title>Andrew J Parkes&#45;&#45;Edmund Kieran Burke</title>
<path fill="none" stroke="black" stroke-width="2" d="M382.652,-61.789C382.652,-89.0065 382.652,-223 382.652,-223 382.652,-223 273.263,-223 193.571,-223"/>
</g>
<!-- Andrew J Parkes&#45;&#45;Shahriar Asta -->
<g id="edge18" class="edge"><title>Andrew J Parkes&#45;&#45;Shahriar Asta</title>
<path fill="none" stroke="black" stroke-width="2" d="M291.522,-73.0032C291.522,-87.9833 291.522,-110.2 291.522,-124.885"/>
</g>
<!-- Andrew J Parkes&#45;&#45;Shahriar Asta -->
<g id="edge22" class="edge"><title>Andrew J Parkes&#45;&#45;Shahriar Asta</title>
<path fill="none" stroke="black" stroke-width="2" d="M279.73,-71.0798C279.73,-87.2675 279.73,-113.53 279.73,-128.529"/>
</g>
<!-- Andrew J Parkes&#45;&#45;Shahriar Asta -->
<g id="edge26" class="edge"><title>Andrew J Parkes&#45;&#45;Shahriar Asta</title>
<path fill="none" stroke="black" stroke-width="2" d="M315.104,-75.0098C315.104,-88.9316 315.104,-108.112 315.104,-122.025"/>
</g>
<!-- Andrew J Parkes&#45;&#45;Shahriar Asta -->
<g id="edge30" class="edge"><title>Andrew J Parkes&#45;&#45;Shahriar Asta</title>
<path fill="none" stroke="black" stroke-width="2" d="M303.313,-74.6022C303.313,-88.8779 303.313,-108.877 303.313,-122.991"/>
</g>
<!-- Daniel Karapetyan -->
<g id="node8" class="node"><title>Daniel Karapetyan</title>
<ellipse fill="lightgrey" stroke="black" cx="467" cy="-140" rx="69.4688" ry="18"/>
<text text-anchor="middle" x="467" y="-136.6" font-family="Times New Roman,serif" font-size="13.00">Daniel Karapetyan</text>
</g>
<!-- Andrew J Parkes&#45;&#45;Daniel Karapetyan -->
<g id="edge19" class="edge"><title>Andrew J Parkes&#45;&#45;Daniel Karapetyan</title>
<path fill="none" stroke="black" stroke-width="2" d="M381.391,-63C398.183,-63 411.918,-63 411.918,-63 411.918,-63 411.918,-107.677 411.918,-128.968"/>
</g>
<!-- Andrew J Parkes&#45;&#45;Daniel Karapetyan -->
<g id="edge23" class="edge"><title>Andrew J Parkes&#45;&#45;Daniel Karapetyan</title>
<path fill="none" stroke="black" stroke-width="2" d="M384.579,-59C402.259,-59 416.719,-59 416.719,-59 416.719,-59 416.719,-104.563 416.719,-127.344"/>
</g>
<!-- Andrew J Parkes&#45;&#45;Daniel Karapetyan -->
<g id="edge27" class="edge"><title>Andrew J Parkes&#45;&#45;Daniel Karapetyan</title>
<path fill="none" stroke="black" stroke-width="2" d="M374.068,-67C391.79,-67 407.117,-67 407.117,-67 407.117,-67 407.117,-111.111 407.117,-130.754"/>
</g>
<!-- Andrew J Parkes&#45;&#45;Daniel Karapetyan -->
<g id="edge31" class="edge"><title>Andrew J Parkes&#45;&#45;Daniel Karapetyan</title>
<path fill="none" stroke="black" stroke-width="2" d="M361.182,-71C381.668,-71 402.316,-71 402.316,-71 402.316,-71 402.316,-116.114 402.316,-133.384"/>
</g>
<!-- Rhyd Lewis -->
<g id="node10" class="node"><title>Rhyd Lewis</title>
<ellipse fill="lightgrey" stroke="black" cx="112" cy="-140" rx="48.7785" ry="18"/>
<text text-anchor="middle" x="112" y="-136.6" font-family="Times New Roman,serif" font-size="13.00">Rhyd Lewis</text>
</g>
<!-- Andrew J Parkes&#45;&#45;Rhyd Lewis -->
<g id="edge20" class="edge"><title>Andrew J Parkes&#45;&#45;Rhyd Lewis</title>
<path fill="none" stroke="black" stroke-width="2" d="M261.496,-63.5467C261.496,-82.6531 261.496,-137 261.496,-137 261.496,-137 203.827,-137 160.124,-137"/>
</g>
<!-- Andrew J Parkes&#45;&#45;Rhyd Lewis -->
<g id="edge24" class="edge"><title>Andrew J Parkes&#45;&#45;Rhyd Lewis</title>
<path fill="none" stroke="black" stroke-width="2" d="M259.348,-61.7897C259.348,-78.0303 259.348,-130 259.348,-130 259.348,-130 196.268,-130 152.654,-130"/>
</g>
<!-- Andrew J Parkes&#45;&#45;Rhyd Lewis -->
<g id="edge28" class="edge"><title>Andrew J Parkes&#45;&#45;Rhyd Lewis</title>
<path fill="none" stroke="black" stroke-width="2" d="M265.792,-66.3567C265.792,-90.1329 265.792,-151 265.792,-151 265.792,-151 196.368,-151 150.808,-151"/>
</g>
<!-- Andrew J Parkes&#45;&#45;Rhyd Lewis -->
<g id="edge32" class="edge"><title>Andrew J Parkes&#45;&#45;Rhyd Lewis</title>
<path fill="none" stroke="black" stroke-width="2" d="M263.644,-65.0288C263.644,-86.5664 263.644,-144 263.644,-144 263.644,-144 204.037,-144 159.565,-144"/>
</g>
<!-- Warren G. Jackson -->
<g id="node3" class="node"><title>Warren G. Jackson</title>
<ellipse fill="lightgrey" stroke="black" cx="168" cy="-57" rx="71.259" ry="18"/>
<text text-anchor="middle" x="168" y="-53.6" font-family="Times New Roman,serif" font-size="13.00">Warren G. Jackson</text>
</g>
<!-- Ed Keedwell -->
<g id="node4" class="node"><title>Ed Keedwell</title>
<ellipse fill="lightgrey" stroke="black" cx="1011" cy="-57" rx="51.5957" ry="18"/>
<text text-anchor="middle" x="1011" y="-53.6" font-family="Times New Roman,serif" font-size="13.00">Ed Keedwell</text>
</g>
<!-- Dragan Savic -->
<g id="node5" class="node"><title>Dragan Savic</title>
<ellipse fill="lightgrey" stroke="black" cx="1011" cy="-140" rx="52.3583" ry="18"/>
<text text-anchor="middle" x="1011" y="-136.6" font-family="Times New Roman,serif" font-size="13.00">Dragan Savic</text>
</g>
<!-- Ed Keedwell&#45;&#45;Dragan Savic -->
<g id="edge33" class="edge"><title>Ed Keedwell&#45;&#45;Dragan Savic</title>
<path fill="none" stroke="black" stroke-width="2" d="M985.101,-72.6117C985.101,-87.3568 985.101,-109.362 985.101,-124.176"/>
</g>
<!-- Ed Keedwell&#45;&#45;Dragan Savic -->
<g id="edge34" class="edge"><title>Ed Keedwell&#45;&#45;Dragan Savic</title>
<path fill="none" stroke="black" stroke-width="2" d="M1011,-75.0098C1011,-88.8363 1011,-107.85 1011,-121.739"/>
</g>
<!-- Ed Keedwell&#45;&#45;Dragan Savic -->
<g id="edge35" class="edge"><title>Ed Keedwell&#45;&#45;Dragan Savic</title>
<path fill="none" stroke="black" stroke-width="2" d="M1036.9,-72.6117C1036.9,-87.3568 1036.9,-109.362 1036.9,-124.176"/>
</g>
<!-- Shahriar Asta&#45;&#45;Daniel Karapetyan -->
<g id="edge36" class="edge"><title>Shahriar Asta&#45;&#45;Daniel Karapetyan</title>
<path fill="none" stroke="black" stroke-width="2" d="M363.229,-151C378.388,-151 395.714,-151 411.81,-151"/>
</g>
<!-- Shahriar Asta&#45;&#45;Daniel Karapetyan -->
<g id="edge37" class="edge"><title>Shahriar Asta&#45;&#45;Daniel Karapetyan</title>
<path fill="none" stroke="black" stroke-width="2" d="M365.201,-130C379.049,-130 394.544,-130 409.186,-130"/>
</g>
<!-- Shahriar Asta&#45;&#45;Daniel Karapetyan -->
<g id="edge38" class="edge"><title>Shahriar Asta&#45;&#45;Daniel Karapetyan</title>
<path fill="none" stroke="black" stroke-width="2" d="M373.709,-137C381.714,-137 390.072,-137 398.355,-137"/>
</g>
<!-- Shahriar Asta&#45;&#45;Daniel Karapetyan -->
<g id="edge39" class="edge"><title>Shahriar Asta&#45;&#45;Daniel Karapetyan</title>
<path fill="none" stroke="black" stroke-width="2" d="M372.885,-144C381.409,-144 390.354,-144 399.196,-144"/>
</g>
<!-- Daniel Karapetyan&#45;&#45;Ender zcan -->
<g id="edge40" class="edge"><title>Daniel Karapetyan&#45;&#45;Ender zcan</title>
<path fill="none" stroke="black" stroke-width="2" d="M505.484,-124.777C505.484,-107.929 505.484,-81.2654 505.484,-66.919"/>
</g>
<!-- Daniel Karapetyan&#45;&#45;Ender zcan -->
<g id="edge41" class="edge"><title>Daniel Karapetyan&#45;&#45;Ender zcan</title>
<path fill="none" stroke="black" stroke-width="2" d="M498.487,-123.602C498.487,-107.917 498.487,-84.5693 498.487,-70.0915"/>
</g>
<!-- Daniel Karapetyan&#45;&#45;Ender zcan -->
<g id="edge42" class="edge"><title>Daniel Karapetyan&#45;&#45;Ender zcan</title>
<path fill="none" stroke="black" stroke-width="2" d="M491.49,-122.802C491.49,-107.893 491.49,-86.5215 491.49,-72.222"/>
</g>
<!-- Daniel Karapetyan&#45;&#45;Ender zcan -->
<g id="edge43" class="edge"><title>Daniel Karapetyan&#45;&#45;Ender zcan</title>
<path fill="none" stroke="black" stroke-width="2" d="M484.493,-122.398C484.493,-108.027 484.493,-87.8563 484.493,-73.7276"/>
</g>
<!-- Mustafa Msr&#45;&#45;Edmund Kieran Burke -->
<g id="edge44" class="edge"><title>Mustafa Msr&#45;&#45;Edmund Kieran Burke</title>
<path fill="none" stroke="black" stroke-width="2" d="M723.899,-156.018C723.899,-183.568 723.899,-237 723.899,-237 723.899,-237 310.672,-237 163.38,-237"/>
</g>
<!-- Mustafa Msr&#45;&#45;Edmund Kieran Burke -->
<g id="edge45" class="edge"><title>Mustafa Msr&#45;&#45;Edmund Kieran Burke</title>
<path fill="none" stroke="black" stroke-width="2" d="M698,-158.176C698,-184.988 698,-232 698,-232 698,-232 338.543,-232 182.685,-232"/>
</g>
<!-- Mustafa Msr&#45;&#45;Edmund Kieran Burke -->
<g id="edge46" class="edge"><title>Mustafa Msr&#45;&#45;Edmund Kieran Burke</title>
<path fill="none" stroke="black" stroke-width="2" d="M672.101,-155.733C672.101,-181.045 672.101,-228 672.101,-228 672.101,-228 344.617,-228 190.469,-228"/>
</g>
<!-- Rhyd Lewis&#45;&#45;Edmund Kieran Burke -->
<g id="edge47" class="edge"><title>Rhyd Lewis&#45;&#45;Edmund Kieran Burke</title>
<path fill="none" stroke="black" stroke-width="2" d="M141.183,-154.457C141.183,-168.856 141.183,-190.946 141.183,-206.135"/>
</g>
<!-- Rhyd Lewis&#45;&#45;Edmund Kieran Burke -->
<g id="edge48" class="edge"><title>Rhyd Lewis&#45;&#45;Edmund Kieran Burke</title>
<path fill="none" stroke="black" stroke-width="2" d="M121.728,-158.01C121.728,-171.932 121.728,-191.112 121.728,-205.025"/>
</g>
<!-- Rhyd Lewis&#45;&#45;Edmund Kieran Burke -->
<g id="edge49" class="edge"><title>Rhyd Lewis&#45;&#45;Edmund Kieran Burke</title>
<path fill="none" stroke="black" stroke-width="2" d="M102.272,-158.01C102.272,-171.932 102.272,-191.112 102.272,-205.025"/>
</g>
<!-- Rhyd Lewis&#45;&#45;Edmund Kieran Burke -->
<g id="edge50" class="edge"><title>Rhyd Lewis&#45;&#45;Edmund Kieran Burke</title>
<path fill="none" stroke="black" stroke-width="2" d="M82.8166,-154.457C82.8166,-168.856 82.8166,-190.946 82.8166,-206.135"/>
</g>
</g>
</svg>
