<?xml version="1.0" encoding="UTF-8" standalone="no"?>
<!DOCTYPE svg PUBLIC "-//W3C//DTD SVG 1.1//EN"
 "http://www.w3.org/Graphics/SVG/1.1/DTD/svg11.dtd">
<!-- Generated by graphviz version 2.38.0 (20140413.2041)
 -->
<!-- Title: G Pages: 1 -->
<svg width="936pt" height="220pt"
 viewBox="0.00 0.00 936.00 220.09" xmlns="http://www.w3.org/2000/svg" xmlns:xlink="http://www.w3.org/1999/xlink">
<g id="graph0" class="graph" transform="scale(0.830524 0.830524) rotate(0) translate(4 261)">
<title>G</title>
<polygon fill="white" stroke="none" points="-4,4 -4,-261 1123,-261 1123,4 -4,4"/>
<g id="clust1" class="cluster"><title>cluster_0</title>
<polygon fill="lightgrey" stroke="lightgrey" points="408,-8 408,-83 742,-83 742,-8 408,-8"/>
<text text-anchor="middle" x="575" y="-15.8" font-family="Times New Roman,serif" font-size="14.00">Lecturer of Computer Science and Operational Research</text>
</g>
<g id="clust4" class="cluster"><title>cluster_3</title>
<polygon fill="lightgrey" stroke="lightgrey" points="8,-174 8,-249 217,-249 217,-174 8,-174"/>
<text text-anchor="middle" x="112.5" y="-181.8" font-family="Times New Roman,serif" font-size="14.00">Queen Mary University of London</text>
</g>
<g id="clust3" class="cluster"><title>cluster_2</title>
<polygon fill="lightgrey" stroke="lightgrey" points="983,-8 983,-166 1111,-166 1111,-8 983,-8"/>
<text text-anchor="middle" x="1047" y="-15.8" font-family="Times New Roman,serif" font-size="14.00">University of Exeter</text>
</g>
<g id="clust2" class="cluster"><title>cluster_1</title>
<polygon fill="lightgrey" stroke="lightgrey" points="89,-8 89,-83 393,-83 393,-8 89,-8"/>
<text text-anchor="middle" x="241" y="-15.8" font-family="Times New Roman,serif" font-size="14.00">University of Nottingham</text>
</g>
<g id="clust5" class="cluster"><title>cluster_4</title>
<polygon fill="lightgrey" stroke="lightgrey" points="177,-91 177,-166 382,-166 382,-91 177,-91"/>
<text text-anchor="middle" x="279.5" y="-98.8" font-family="Times New Roman,serif" font-size="14.00">PhD &#45; Data &amp; Computer Scientist</text>
</g>
<g id="clust6" class="cluster"><title>cluster_5</title>
<polygon fill="lightgrey" stroke="lightgrey" points="390,-91 390,-166 544,-166 544,-91 390,-91"/>
<text text-anchor="middle" x="467" y="-98.8" font-family="Times New Roman,serif" font-size="14.00">University of Essex</text>
</g>
<g id="clust7" class="cluster"><title>cluster_6</title>
<polygon fill="lightgrey" stroke="lightgrey" points="672,-91 672,-166 975,-166 975,-91 672,-91"/>
<text text-anchor="middle" x="823.5" y="-98.8" font-family="Times New Roman,serif" font-size="14.00">Nanjing University of Aeronautics and Astronautics</text>
</g>
<g id="clust8" class="cluster"><title>cluster_7</title>
<polygon fill="lightgrey" stroke="lightgrey" points="53,-91 53,-166 169,-166 169,-91 53,-91"/>
<text text-anchor="middle" x="111" y="-98.8" font-family="Times New Roman,serif" font-size="14.00">Cardiff University</text>
</g>
<!-- Ender zcan -->
<g id="node1" class="node"><title>Ender zcan</title>
<ellipse fill="lightgrey" stroke="black" cx="467" cy="-57" rx="45.4614" ry="18"/>
<text text-anchor="middle" x="467" y="-53.6" font-family="Times New Roman,serif" font-size="13.00">Ender zcan</text>
</g>
<!-- Andrew J Parkes -->
<g id="node2" class="node"><title>Andrew J Parkes</title>
<ellipse fill="lightgrey" stroke="black" cx="321" cy="-57" rx="63.5992" ry="18"/>
<text text-anchor="middle" x="321" y="-53.6" font-family="Times New Roman,serif" font-size="13.00">Andrew J Parkes</text>
</g>
<!-- Ender zcan&#45;&#45;Andrew J Parkes -->
<g id="edge2" class="edge"><title>Ender zcan&#45;&#45;Andrew J Parkes</title>
<path fill="none" stroke="black" stroke-width="2" d="M441.569,-42C418.039,-42 382.832,-42 356.529,-42"/>
</g>
<!-- Ender zcan&#45;&#45;Andrew J Parkes -->
<g id="edge6" class="edge"><title>Ender zcan&#45;&#45;Andrew J Parkes</title>
<path fill="none" stroke="black" stroke-width="2" d="M421.205,-57C409.665,-57 397.066,-57 384.817,-57"/>
</g>
<!-- Ender zcan&#45;&#45;Andrew J Parkes -->
<g id="edge10" class="edge"><title>Ender zcan&#45;&#45;Andrew J Parkes</title>
<path fill="none" stroke="black" stroke-width="2" d="M422.004,-54C410.023,-54 396.855,-54 384.098,-54"/>
</g>
<!-- Ender zcan&#45;&#45;Andrew J Parkes -->
<g id="edge14" class="edge"><title>Ender zcan&#45;&#45;Andrew J Parkes</title>
<path fill="none" stroke="black" stroke-width="2" d="M423.985,-51C410.611,-51 395.611,-51 381.286,-51"/>
</g>
<!-- Ender zcan&#45;&#45;Andrew J Parkes -->
<g id="edge18" class="edge"><title>Ender zcan&#45;&#45;Andrew J Parkes</title>
<path fill="none" stroke="black" stroke-width="2" d="M427.49,-48C411.783,-48 393.434,-48 376.435,-48"/>
</g>
<!-- Ender zcan&#45;&#45;Andrew J Parkes -->
<g id="edge22" class="edge"><title>Ender zcan&#45;&#45;Andrew J Parkes</title>
<path fill="none" stroke="black" stroke-width="2" d="M432.769,-45C413.637,-45 389.5,-45 368.556,-45"/>
</g>
<!-- Edmund Kieran Burke -->
<g id="node6" class="node"><title>Edmund Kieran Burke</title>
<ellipse fill="lightgrey" stroke="black" cx="112" cy="-223" rx="81.4725" ry="18"/>
<text text-anchor="middle" x="112" y="-219.6" font-family="Times New Roman,serif" font-size="13.00">Edmund Kieran Burke</text>
</g>
<!-- Ender zcan&#45;&#45;Edmund Kieran Burke -->
<g id="edge1" class="edge"><title>Ender zcan&#45;&#45;Edmund Kieran Burke</title>
<path fill="none" stroke="black" stroke-width="2" d="M450.244,-73.7658C450.244,-84.3362 450.244,-96 450.244,-96 450.244,-96 188.794,-96 188.794,-96 188.794,-96 188.794,-191.506 188.794,-216.875"/>
</g>
<!-- Ender zcan&#45;&#45;Edmund Kieran Burke -->
<g id="edge5" class="edge"><title>Ender zcan&#45;&#45;Edmund Kieran Burke</title>
<path fill="none" stroke="black" stroke-width="2" d="M431.094,-68.3297C431.094,-74.9443 431.094,-82 431.094,-82 431.094,-82 170.024,-82 170.024,-82 170.024,-82 170.024,-175.082 170.024,-209.988"/>
</g>
<!-- Ender zcan&#45;&#45;Edmund Kieran Burke -->
<g id="edge9" class="edge"><title>Ender zcan&#45;&#45;Edmund Kieran Burke</title>
<path fill="none" stroke="black" stroke-width="2" d="M440.669,-71.8758C440.669,-80.2324 440.669,-89 440.669,-89 440.669,-89 179.409,-89 179.409,-89 179.409,-89 179.409,-180.896 179.409,-212.485"/>
</g>
<!-- Ender zcan&#45;&#45;Edmund Kieran Burke -->
<g id="edge13" class="edge"><title>Ender zcan&#45;&#45;Edmund Kieran Burke</title>
<path fill="none" stroke="black" stroke-width="2" d="M445.457,-72.8615C445.457,-82.1221 445.457,-92 445.457,-92 445.457,-92 184.101,-92 184.101,-92 184.101,-92 184.101,-185.261 184.101,-214.405"/>
</g>
<!-- Ender zcan&#45;&#45;Edmund Kieran Burke -->
<g id="edge17" class="edge"><title>Ender zcan&#45;&#45;Edmund Kieran Burke</title>
<path fill="none" stroke="black" stroke-width="2" d="M426.307,-65.192C426.307,-71.4469 426.307,-79 426.307,-79 426.307,-79 165.332,-79 165.332,-79 165.332,-79 165.332,-173.151 165.332,-209.193"/>
</g>
<!-- Ender zcan&#45;&#45;Edmund Kieran Burke -->
<g id="edge21" class="edge"><title>Ender zcan&#45;&#45;Edmund Kieran Burke</title>
<path fill="none" stroke="black" stroke-width="2" d="M435.882,-70.1424C435.882,-77.8154 435.882,-86 435.882,-86 435.882,-86 174.716,-86 174.716,-86 174.716,-86 174.716,-178.189 174.716,-211.319"/>
</g>
<!-- Shahriar Asta -->
<g id="node7" class="node"><title>Shahriar Asta</title>
<ellipse fill="lightgrey" stroke="black" cx="321" cy="-140" rx="53.1217" ry="18"/>
<text text-anchor="middle" x="321" y="-136.6" font-family="Times New Roman,serif" font-size="13.00">Shahriar Asta</text>
</g>
<!-- Ender zcan&#45;&#45;Shahriar Asta -->
<g id="edge3" class="edge"><title>Ender zcan&#45;&#45;Shahriar Asta</title>
<path fill="none" stroke="black" stroke-width="2" d="M474.181,-75.0225C474.181,-92.3734 474.181,-116 474.181,-116 474.181,-116 357.734,-116 357.734,-116 357.734,-116 357.734,-121.273 357.734,-126.876"/>
</g>
<!-- Ender zcan&#45;&#45;Shahriar Asta -->
<g id="edge7" class="edge"><title>Ender zcan&#45;&#45;Shahriar Asta</title>
<path fill="none" stroke="black" stroke-width="2" d="M469.394,-75.0091C469.394,-91.0494 469.394,-112 469.394,-112 469.394,-112 349.571,-112 349.571,-112 349.571,-112 349.571,-118.152 349.571,-124.689"/>
</g>
<!-- Ender zcan&#45;&#45;Shahriar Asta -->
<g id="edge11" class="edge"><title>Ender zcan&#45;&#45;Shahriar Asta</title>
<path fill="none" stroke="black" stroke-width="2" d="M464.606,-75.1871C464.606,-90.1824 464.606,-109 464.606,-109 464.606,-109 341.408,-109 341.408,-109 341.408,-109 341.408,-115.812 341.408,-123.049"/>
</g>
<!-- Ender zcan&#45;&#45;Shahriar Asta -->
<g id="edge15" class="edge"><title>Ender zcan&#45;&#45;Shahriar Asta</title>
<path fill="none" stroke="black" stroke-width="2" d="M459.819,-74.9676C459.819,-88.9521 459.819,-106 459.819,-106 459.819,-106 333.245,-106 333.245,-106 333.245,-106 333.245,-113.977 333.245,-122.203"/>
</g>
<!-- Ender zcan&#45;&#45;Shahriar Asta -->
<g id="edge19" class="edge"><title>Ender zcan&#45;&#45;Shahriar Asta</title>
<path fill="none" stroke="black" stroke-width="2" d="M455.031,-74.527C455.031,-87.1623 455.031,-102 455.031,-102 455.031,-102 325.082,-102 325.082,-102 325.082,-102 325.082,-112.103 325.082,-121.89"/>
</g>
<!-- Ender zcan&#45;&#45;Shahriar Asta -->
<g id="edge23" class="edge"><title>Ender zcan&#45;&#45;Shahriar Asta</title>
<path fill="none" stroke="black" stroke-width="2" d="M478.969,-74.6009C478.969,-92.9308 478.969,-119 478.969,-119 478.969,-119 365.898,-119 365.898,-119 365.898,-119 365.898,-124.583 365.898,-129.992"/>
</g>
<!-- Mustafa Msr -->
<g id="node9" class="node"><title>Mustafa Msr</title>
<ellipse fill="lightgrey" stroke="black" cx="734" cy="-140" rx="51.5957" ry="18"/>
<text text-anchor="middle" x="734" y="-136.6" font-family="Times New Roman,serif" font-size="13.00">Mustafa Msr</text>
</g>
<!-- Ender zcan&#45;&#45;Mustafa Msr -->
<g id="edge4" class="edge"><title>Ender zcan&#45;&#45;Mustafa Msr</title>
<path fill="none" stroke="black" stroke-width="2" d="M500.988,-45C580.315,-45 770.998,-45 770.998,-45 770.998,-45 770.998,-101.257 770.998,-127.188"/>
</g>
<!-- Ender zcan&#45;&#45;Mustafa Msr -->
<g id="edge8" class="edge"><title>Ender zcan&#45;&#45;Mustafa Msr</title>
<path fill="none" stroke="black" stroke-width="2" d="M509.052,-50C589.261,-50 756.199,-50 756.199,-50 756.199,-50 756.199,-97.5104 756.199,-123.493"/>
</g>
<!-- Ender zcan&#45;&#45;Mustafa Msr -->
<g id="edge12" class="edge"><title>Ender zcan&#45;&#45;Mustafa Msr</title>
<path fill="none" stroke="black" stroke-width="2" d="M498.499,-70C561.49,-70 697.002,-70 697.002,-70 697.002,-70 697.002,-106.953 697.002,-127.161"/>
</g>
<!-- Ender zcan&#45;&#45;Mustafa Msr -->
<g id="edge16" class="edge"><title>Ender zcan&#45;&#45;Mustafa Msr</title>
<path fill="none" stroke="black" stroke-width="2" d="M512.312,-55C590.249,-55 741.4,-55 741.4,-55 741.4,-55 741.4,-97.0227 741.4,-121.974"/>
</g>
<!-- Ender zcan&#45;&#45;Mustafa Msr -->
<g id="edge20" class="edge"><title>Ender zcan&#45;&#45;Mustafa Msr</title>
<path fill="none" stroke="black" stroke-width="2" d="M511.923,-60C586.224,-60 726.6,-60 726.6,-60 726.6,-60 726.6,-98.2434 726.6,-121.847"/>
</g>
<!-- Ender zcan&#45;&#45;Mustafa Msr -->
<g id="edge24" class="edge"><title>Ender zcan&#45;&#45;Mustafa Msr</title>
<path fill="none" stroke="black" stroke-width="2" d="M507.974,-65C577.663,-65 711.801,-65 711.801,-65 711.801,-65 711.801,-101.668 711.801,-123.726"/>
</g>
<!-- Andrew J Parkes&#45;&#45;Edmund Kieran Burke -->
<g id="edge25" class="edge"><title>Andrew J Parkes&#45;&#45;Edmund Kieran Burke</title>
<path fill="none" stroke="black" stroke-width="2" d="M273.185,-69C262.483,-69 254.23,-69 254.23,-69 254.23,-69 254.23,-214 254.23,-214 254.23,-214 218.395,-214 182.699,-214"/>
</g>
<!-- Andrew J Parkes&#45;&#45;Edmund Kieran Burke -->
<g id="edge29" class="edge"><title>Andrew J Parkes&#45;&#45;Edmund Kieran Burke</title>
<path fill="none" stroke="black" stroke-width="2" d="M260.666,-63C254.965,-63 251.26,-63 251.26,-63 251.26,-63 251.26,-211 251.26,-211 251.26,-211 210.499,-211 173.082,-211"/>
</g>
<!-- Andrew J Parkes&#45;&#45;Edmund Kieran Burke -->
<g id="edge33" class="edge"><title>Andrew J Parkes&#45;&#45;Edmund Kieran Burke</title>
<path fill="none" stroke="black" stroke-width="2" d="M376.208,-66.0607C376.208,-99.9077 376.208,-217 376.208,-217 376.208,-217 267.115,-217 189.13,-217"/>
</g>
<!-- Andrew J Parkes&#45;&#45;Edmund Kieran Burke -->
<g id="edge37" class="edge"><title>Andrew J Parkes&#45;&#45;Edmund Kieran Burke</title>
<path fill="none" stroke="black" stroke-width="2" d="M380.504,-63.713C380.504,-94.769 380.504,-223 380.504,-223 380.504,-223 272.649,-223 193.654,-223"/>
</g>
<!-- Andrew J Parkes&#45;&#45;Edmund Kieran Burke -->
<g id="edge41" class="edge"><title>Andrew J Parkes&#45;&#45;Edmund Kieran Burke</title>
<path fill="none" stroke="black" stroke-width="2" d="M256.916,-57C251.646,-57 248.29,-57 248.29,-57 248.29,-57 248.29,-208 248.29,-208 248.29,-208 197.029,-208 157.383,-208"/>
</g>
<!-- Andrew J Parkes&#45;&#45;Edmund Kieran Burke -->
<g id="edge45" class="edge"><title>Andrew J Parkes&#45;&#45;Edmund Kieran Burke</title>
<path fill="none" stroke="black" stroke-width="2" d="M378.356,-64.9101C378.356,-97.6697 378.356,-221 378.356,-221 378.356,-221 271.364,-221 193,-221"/>
</g>
<!-- Andrew J Parkes&#45;&#45;Shahriar Asta -->
<g id="edge26" class="edge"><title>Andrew J Parkes&#45;&#45;Shahriar Asta</title>
<path fill="none" stroke="black" stroke-width="2" d="M292.429,-73.3981C292.429,-88.3271 292.429,-110.198 292.429,-124.755"/>
</g>
<!-- Andrew J Parkes&#45;&#45;Shahriar Asta -->
<g id="edge30" class="edge"><title>Andrew J Parkes&#45;&#45;Shahriar Asta</title>
<path fill="none" stroke="black" stroke-width="2" d="M300.592,-74.1977C300.592,-88.5375 300.592,-108.854 300.592,-123.108"/>
</g>
<!-- Andrew J Parkes&#45;&#45;Shahriar Asta -->
<g id="edge34" class="edge"><title>Andrew J Parkes&#45;&#45;Shahriar Asta</title>
<path fill="none" stroke="black" stroke-width="2" d="M308.755,-75.0098C308.755,-89.027 308.755,-108.375 308.755,-122.311"/>
</g>
<!-- Andrew J Parkes&#45;&#45;Shahriar Asta -->
<g id="edge38" class="edge"><title>Andrew J Parkes&#45;&#45;Shahriar Asta</title>
<path fill="none" stroke="black" stroke-width="2" d="M316.918,-75.0098C316.918,-88.9316 316.918,-108.112 316.918,-122.025"/>
</g>
<!-- Andrew J Parkes&#45;&#45;Shahriar Asta -->
<g id="edge42" class="edge"><title>Andrew J Parkes&#45;&#45;Shahriar Asta</title>
<path fill="none" stroke="black" stroke-width="2" d="M276.102,-69.9688C276.102,-86.6559 276.102,-115.272 276.102,-130.235"/>
</g>
<!-- Andrew J Parkes&#45;&#45;Shahriar Asta -->
<g id="edge46" class="edge"><title>Andrew J Parkes&#45;&#45;Shahriar Asta</title>
<path fill="none" stroke="black" stroke-width="2" d="M284.266,-71.8387C284.266,-87.5059 284.266,-111.965 284.266,-126.929"/>
</g>
<!-- Daniel Karapetyan -->
<g id="node8" class="node"><title>Daniel Karapetyan</title>
<ellipse fill="lightgrey" stroke="black" cx="467" cy="-140" rx="69.4688" ry="18"/>
<text text-anchor="middle" x="467" y="-136.6" font-family="Times New Roman,serif" font-size="13.00">Daniel Karapetyan</text>
</g>
<!-- Andrew J Parkes&#45;&#45;Daniel Karapetyan -->
<g id="edge27" class="edge"><title>Andrew J Parkes&#45;&#45;Daniel Karapetyan</title>
<path fill="none" stroke="black" stroke-width="2" d="M381.376,-63C399.499,-63 414.661,-63 414.661,-63 414.661,-63 414.661,-106.313 414.661,-127.969"/>
</g>
<!-- Andrew J Parkes&#45;&#45;Daniel Karapetyan -->
<g id="edge31" class="edge"><title>Andrew J Parkes&#45;&#45;Daniel Karapetyan</title>
<path fill="none" stroke="black" stroke-width="2" d="M376.346,-66C395.024,-66 411.232,-66 411.232,-66 411.232,-66 411.232,-108.497 411.232,-129.081"/>
</g>
<!-- Andrew J Parkes&#45;&#45;Daniel Karapetyan -->
<g id="edge35" class="edge"><title>Andrew J Parkes&#45;&#45;Daniel Karapetyan</title>
<path fill="none" stroke="black" stroke-width="2" d="M384.133,-60C402.677,-60 418.09,-60 418.09,-60 418.09,-60 418.09,-104.532 418.09,-127.147"/>
</g>
<!-- Andrew J Parkes&#45;&#45;Daniel Karapetyan -->
<g id="edge39" class="edge"><title>Andrew J Parkes&#45;&#45;Daniel Karapetyan</title>
<path fill="none" stroke="black" stroke-width="2" d="M368.718,-69C388.889,-69 407.803,-69 407.803,-69 407.803,-69 407.803,-111.045 407.803,-130.425"/>
</g>
<!-- Andrew J Parkes&#45;&#45;Daniel Karapetyan -->
<g id="edge43" class="edge"><title>Andrew J Parkes&#45;&#45;Daniel Karapetyan</title>
<path fill="none" stroke="black" stroke-width="2" d="M356.358,-72C379.082,-72 404.374,-72 404.374,-72 404.374,-72 404.374,-114.338 404.374,-132.2"/>
</g>
<!-- Andrew J Parkes&#45;&#45;Daniel Karapetyan -->
<g id="edge47" class="edge"><title>Andrew J Parkes&#45;&#45;Daniel Karapetyan</title>
<path fill="none" stroke="black" stroke-width="2" d="M382.652,-61.8179C382.652,-72.85 382.652,-99 382.652,-99 382.652,-99 400.945,-99 400.945,-99 400.945,-99 400.945,-123.033 400.945,-134.299"/>
</g>
<!-- Rhyd Lewis -->
<g id="node10" class="node"><title>Rhyd Lewis</title>
<ellipse fill="lightgrey" stroke="black" cx="112" cy="-140" rx="48.7785" ry="18"/>
<text text-anchor="middle" x="112" y="-136.6" font-family="Times New Roman,serif" font-size="13.00">Rhyd Lewis</text>
</g>
<!-- Andrew J Parkes&#45;&#45;Rhyd Lewis -->
<g id="edge28" class="edge"><title>Andrew J Parkes&#45;&#45;Rhyd Lewis</title>
<path fill="none" stroke="black" stroke-width="2" d="M263.644,-65.0756C263.644,-87.3468 263.644,-148 263.644,-148 263.644,-148 200.648,-148 155.862,-148"/>
</g>
<!-- Andrew J Parkes&#45;&#45;Rhyd Lewis -->
<g id="edge32" class="edge"><title>Andrew J Parkes&#45;&#45;Rhyd Lewis</title>
<path fill="none" stroke="black" stroke-width="2" d="M261.496,-63.7483C261.496,-84.022 261.496,-143 261.496,-143 261.496,-143 203.827,-143 160.124,-143"/>
</g>
<!-- Andrew J Parkes&#45;&#45;Rhyd Lewis -->
<g id="edge36" class="edge"><title>Andrew J Parkes&#45;&#45;Rhyd Lewis</title>
<path fill="none" stroke="black" stroke-width="2" d="M259.348,-61.8243C259.348,-79.2621 259.348,-138 259.348,-138 259.348,-138 203.575,-138 160.656,-138"/>
</g>
<!-- Andrew J Parkes&#45;&#45;Rhyd Lewis -->
<g id="edge40" class="edge"><title>Andrew J Parkes&#45;&#45;Rhyd Lewis</title>
<path fill="none" stroke="black" stroke-width="2" d="M273.434,-45C256.871,-45 242.35,-45 242.35,-45 242.35,-45 242.35,-128 242.35,-128 242.35,-128 186.879,-128 148.31,-128"/>
</g>
<!-- Andrew J Parkes&#45;&#45;Rhyd Lewis -->
<g id="edge44" class="edge"><title>Andrew J Parkes&#45;&#45;Rhyd Lewis</title>
<path fill="none" stroke="black" stroke-width="2" d="M265.792,-66.2049C265.792,-90.2329 265.792,-153 265.792,-153 265.792,-153 191.021,-153 145.75,-153"/>
</g>
<!-- Andrew J Parkes&#45;&#45;Rhyd Lewis -->
<g id="edge48" class="edge"><title>Andrew J Parkes&#45;&#45;Rhyd Lewis</title>
<path fill="none" stroke="black" stroke-width="2" d="M260.635,-51C251.643,-51 245.32,-51 245.32,-51 245.32,-51 245.32,-133 245.32,-133 245.32,-133 195.813,-133 157.136,-133"/>
</g>
<!-- Warren G. Jackson -->
<g id="node3" class="node"><title>Warren G. Jackson</title>
<ellipse fill="lightgrey" stroke="black" cx="168" cy="-57" rx="71.259" ry="18"/>
<text text-anchor="middle" x="168" y="-53.6" font-family="Times New Roman,serif" font-size="13.00">Warren G. Jackson</text>
</g>
<!-- Ed Keedwell -->
<g id="node4" class="node"><title>Ed Keedwell</title>
<ellipse fill="lightgrey" stroke="black" cx="1047" cy="-57" rx="51.5957" ry="18"/>
<text text-anchor="middle" x="1047" y="-53.6" font-family="Times New Roman,serif" font-size="13.00">Ed Keedwell</text>
</g>
<!-- Dragan Savic -->
<g id="node5" class="node"><title>Dragan Savic</title>
<ellipse fill="lightgrey" stroke="black" cx="1047" cy="-140" rx="52.3583" ry="18"/>
<text text-anchor="middle" x="1047" y="-136.6" font-family="Times New Roman,serif" font-size="13.00">Dragan Savic</text>
</g>
<!-- Ed Keedwell&#45;&#45;Dragan Savic -->
<g id="edge49" class="edge"><title>Ed Keedwell&#45;&#45;Dragan Savic</title>
<path fill="none" stroke="black" stroke-width="2" d="M1012.47,-70.7058C1012.47,-86.0843 1012.47,-110.887 1012.47,-126.274"/>
</g>
<!-- Ed Keedwell&#45;&#45;Dragan Savic -->
<g id="edge50" class="edge"><title>Ed Keedwell&#45;&#45;Dragan Savic</title>
<path fill="none" stroke="black" stroke-width="2" d="M1029.73,-74.1977C1029.73,-88.4425 1029.73,-108.586 1029.73,-122.824"/>
</g>
<!-- Ed Keedwell&#45;&#45;Dragan Savic -->
<g id="edge51" class="edge"><title>Ed Keedwell&#45;&#45;Dragan Savic</title>
<path fill="none" stroke="black" stroke-width="2" d="M1047,-75.0098C1047,-88.8363 1047,-107.85 1047,-121.739"/>
</g>
<!-- Ed Keedwell&#45;&#45;Dragan Savic -->
<g id="edge52" class="edge"><title>Ed Keedwell&#45;&#45;Dragan Savic</title>
<path fill="none" stroke="black" stroke-width="2" d="M1064.27,-74.1977C1064.27,-88.4425 1064.27,-108.586 1064.27,-122.824"/>
</g>
<!-- Ed Keedwell&#45;&#45;Dragan Savic -->
<g id="edge53" class="edge"><title>Ed Keedwell&#45;&#45;Dragan Savic</title>
<path fill="none" stroke="black" stroke-width="2" d="M1081.53,-70.7058C1081.53,-86.0843 1081.53,-110.887 1081.53,-126.274"/>
</g>
<!-- Shahriar Asta&#45;&#45;Daniel Karapetyan -->
<g id="edge54" class="edge"><title>Shahriar Asta&#45;&#45;Daniel Karapetyan</title>
<path fill="none" stroke="black" stroke-width="2" d="M357.842,-153C376.342,-153 398.987,-153 418.846,-153"/>
</g>
<!-- Shahriar Asta&#45;&#45;Daniel Karapetyan -->
<g id="edge55" class="edge"><title>Shahriar Asta&#45;&#45;Daniel Karapetyan</title>
<path fill="none" stroke="black" stroke-width="2" d="M368.806,-148C380.282,-148 392.706,-148 404.732,-148"/>
</g>
<!-- Shahriar Asta&#45;&#45;Daniel Karapetyan -->
<g id="edge56" class="edge"><title>Shahriar Asta&#45;&#45;Daniel Karapetyan</title>
<path fill="none" stroke="black" stroke-width="2" d="M373.709,-143C381.714,-143 390.072,-143 398.355,-143"/>
</g>
<!-- Shahriar Asta&#45;&#45;Daniel Karapetyan -->
<g id="edge57" class="edge"><title>Shahriar Asta&#45;&#45;Daniel Karapetyan</title>
<path fill="none" stroke="black" stroke-width="2" d="M374.122,-138C381.868,-138 389.937,-138 397.942,-138"/>
</g>
<!-- Shahriar Asta&#45;&#45;Daniel Karapetyan -->
<g id="edge58" class="edge"><title>Shahriar Asta&#45;&#45;Daniel Karapetyan</title>
<path fill="none" stroke="black" stroke-width="2" d="M370.022,-133C380.543,-133 391.811,-133 402.809,-133"/>
</g>
<!-- Shahriar Asta&#45;&#45;Daniel Karapetyan -->
<g id="edge59" class="edge"><title>Shahriar Asta&#45;&#45;Daniel Karapetyan</title>
<path fill="none" stroke="black" stroke-width="2" d="M360.895,-128C377.612,-128 397.268,-128 415.089,-128"/>
</g>
<!-- Daniel Karapetyan&#45;&#45;Ender zcan -->
<g id="edge60" class="edge"><title>Daniel Karapetyan&#45;&#45;Ender zcan</title>
<path fill="none" stroke="black" stroke-width="2" d="M507.693,-125.161C507.693,-107.629 507.693,-79.0874 507.693,-65.1617"/>
</g>
<!-- Daniel Karapetyan&#45;&#45;Ender zcan -->
<g id="edge61" class="edge"><title>Daniel Karapetyan&#45;&#45;Ender zcan</title>
<path fill="none" stroke="black" stroke-width="2" d="M502.906,-124.388C502.906,-108.047 502.906,-82.7877 502.906,-68.2828"/>
</g>
<!-- Daniel Karapetyan&#45;&#45;Ender zcan -->
<g id="edge62" class="edge"><title>Daniel Karapetyan&#45;&#45;Ender zcan</title>
<path fill="none" stroke="black" stroke-width="2" d="M498.118,-123.602C498.118,-108.011 498.118,-84.8503 498.118,-70.3541"/>
</g>
<!-- Daniel Karapetyan&#45;&#45;Ender zcan -->
<g id="edge63" class="edge"><title>Daniel Karapetyan&#45;&#45;Ender zcan</title>
<path fill="none" stroke="black" stroke-width="2" d="M493.331,-123.204C493.331,-108.14 493.331,-86.25 493.331,-71.8238"/>
</g>
<!-- Daniel Karapetyan&#45;&#45;Ender zcan -->
<g id="edge64" class="edge"><title>Daniel Karapetyan&#45;&#45;Ender zcan</title>
<path fill="none" stroke="black" stroke-width="2" d="M488.543,-122.802C488.543,-108.178 488.543,-87.3359 488.543,-73.0493"/>
</g>
<!-- Daniel Karapetyan&#45;&#45;Ender zcan -->
<g id="edge65" class="edge"><title>Daniel Karapetyan&#45;&#45;Ender zcan</title>
<path fill="none" stroke="black" stroke-width="2" d="M483.756,-122.398C483.756,-108.122 483.756,-88.1232 483.756,-74.0091"/>
</g>
<!-- Mustafa Msr&#45;&#45;Edmund Kieran Burke -->
<g id="edge66" class="edge"><title>Mustafa Msr&#45;&#45;Edmund Kieran Burke</title>
<path fill="none" stroke="black" stroke-width="2" d="M734,-158.176C734,-184.988 734,-232 734,-232 734,-232 345.771,-232 182.746,-232"/>
</g>
<!-- Mustafa Msr&#45;&#45;Edmund Kieran Burke -->
<g id="edge67" class="edge"><title>Mustafa Msr&#45;&#45;Edmund Kieran Burke</title>
<path fill="none" stroke="black" stroke-width="2" d="M716.734,-157.16C716.734,-183.022 716.734,-229 716.734,-229 716.734,-229 351.774,-229 188.897,-229"/>
</g>
<!-- Mustafa Msr&#45;&#45;Edmund Kieran Burke -->
<g id="edge68" class="edge"><title>Mustafa Msr&#45;&#45;Edmund Kieran Burke</title>
<path fill="none" stroke="black" stroke-width="2" d="M768.532,-153.626C768.532,-180.554 768.532,-238 768.532,-238 768.532,-238 305.455,-238 157.126,-238"/>
</g>
<!-- Mustafa Msr&#45;&#45;Edmund Kieran Burke -->
<g id="edge69" class="edge"><title>Mustafa Msr&#45;&#45;Edmund Kieran Burke</title>
<path fill="none" stroke="black" stroke-width="2" d="M699.468,-153.438C699.468,-177.625 699.468,-226 699.468,-226 699.468,-226 353.346,-226 192.453,-226"/>
</g>
<!-- Mustafa Msr&#45;&#45;Edmund Kieran Burke -->
<g id="edge70" class="edge"><title>Mustafa Msr&#45;&#45;Edmund Kieran Burke</title>
<path fill="none" stroke="black" stroke-width="2" d="M751.266,-157.163C751.266,-184.776 751.266,-236 751.266,-236 751.266,-236 324.673,-236 168.45,-236"/>
</g>
<!-- Rhyd Lewis&#45;&#45;Edmund Kieran Burke -->
<g id="edge71" class="edge"><title>Rhyd Lewis&#45;&#45;Edmund Kieran Burke</title>
<path fill="none" stroke="black" stroke-width="2" d="M146.742,-152.606C146.742,-167.027 146.742,-190.69 146.742,-206.551"/>
</g>
<!-- Rhyd Lewis&#45;&#45;Edmund Kieran Burke -->
<g id="edge72" class="edge"><title>Rhyd Lewis&#45;&#45;Edmund Kieran Burke</title>
<path fill="none" stroke="black" stroke-width="2" d="M132.845,-156.398C132.845,-170.571 132.845,-191.001 132.845,-205.49"/>
</g>
<!-- Rhyd Lewis&#45;&#45;Edmund Kieran Burke -->
<g id="edge73" class="edge"><title>Rhyd Lewis&#45;&#45;Edmund Kieran Burke</title>
<path fill="none" stroke="black" stroke-width="2" d="M118.948,-158.01C118.948,-171.932 118.948,-191.112 118.948,-205.025"/>
</g>
<!-- Rhyd Lewis&#45;&#45;Edmund Kieran Burke -->
<g id="edge74" class="edge"><title>Rhyd Lewis&#45;&#45;Edmund Kieran Burke</title>
<path fill="none" stroke="black" stroke-width="2" d="M105.052,-158.01C105.052,-171.932 105.052,-191.112 105.052,-205.025"/>
</g>
<!-- Rhyd Lewis&#45;&#45;Edmund Kieran Burke -->
<g id="edge75" class="edge"><title>Rhyd Lewis&#45;&#45;Edmund Kieran Burke</title>
<path fill="none" stroke="black" stroke-width="2" d="M91.1547,-156.398C91.1547,-170.571 91.1547,-191.001 91.1547,-205.49"/>
</g>
<!-- Rhyd Lewis&#45;&#45;Edmund Kieran Burke -->
<g id="edge76" class="edge"><title>Rhyd Lewis&#45;&#45;Edmund Kieran Burke</title>
<path fill="none" stroke="black" stroke-width="2" d="M77.2578,-152.606C77.2578,-167.027 77.2578,-190.69 77.2578,-206.551"/>
</g>
</g>
</svg>
