<?xml version="1.0" encoding="UTF-8" standalone="no"?>
<!DOCTYPE svg PUBLIC "-//W3C//DTD SVG 1.1//EN"
 "http://www.w3.org/Graphics/SVG/1.1/DTD/svg11.dtd">
<!-- Generated by graphviz version 2.38.0 (20140413.2041)
 -->
<!-- Title: G Pages: 1 -->
<svg width="936pt" height="181pt"
 viewBox="0.00 0.00 936.00 181.06" xmlns="http://www.w3.org/2000/svg" xmlns:xlink="http://www.w3.org/1999/xlink">
<g id="graph0" class="graph" transform="scale(0.520289 0.520289) rotate(0) translate(4 344)">
<title>G</title>
<polygon fill="white" stroke="none" points="-4,4 -4,-344 1795,-344 1795,4 -4,4"/>
<g id="clust1" class="cluster"><title>cluster_0</title>
<polygon fill="lightgrey" stroke="lightgrey" points="839,-174 839,-249 1048,-249 1048,-174 839,-174"/>
<text text-anchor="middle" x="943.5" y="-181.8" font-family="Times New Roman,serif" font-size="14.00">Queen Mary University of London</text>
</g>
<g id="clust2" class="cluster"><title>cluster_1</title>
<polygon fill="lightgrey" stroke="lightgrey" points="1160,-257 1160,-332 1308,-332 1308,-257 1160,-257"/>
<text text-anchor="middle" x="1234" y="-264.8" font-family="Times New Roman,serif" font-size="14.00">Queen:s University</text>
</g>
<g id="clust4" class="cluster"><title>cluster_3</title>
<polygon fill="lightgrey" stroke="lightgrey" points="1183,-8 1183,-83 1309,-83 1309,-8 1183,-8"/>
<text text-anchor="middle" x="1246" y="-15.8" font-family="Times New Roman,serif" font-size="14.00">IBM Research</text>
</g>
<g id="clust3" class="cluster"><title>cluster_2</title>
<polygon fill="lightgrey" stroke="lightgrey" points="497,-174 497,-249 831,-249 831,-174 497,-174"/>
<text text-anchor="middle" x="664" y="-181.8" font-family="Times New Roman,serif" font-size="14.00">Lecturer of Computer Science and Operational Research</text>
</g>
<g id="clust5" class="cluster"><title>cluster_4</title>
<polygon fill="lightgrey" stroke="lightgrey" points="541,-257 541,-332 1152,-332 1152,-257 541,-257"/>
<text text-anchor="middle" x="846.5" y="-264.8" font-family="Times New Roman,serif" font-size="14.00">University of Nottingham</text>
</g>
<g id="clust6" class="cluster"><title>cluster_5</title>
<polygon fill="lightgrey" stroke="lightgrey" points="853,-8 853,-83 1058,-83 1058,-8 853,-8"/>
<text text-anchor="middle" x="955.5" y="-15.8" font-family="Times New Roman,serif" font-size="14.00">PhD &#45; Data &amp; Computer Scientist</text>
</g>
<g id="clust10" class="cluster"><title>cluster_9</title>
<polygon fill="lightgrey" stroke="lightgrey" points="1537,-8 1537,-83 1712,-83 1712,-8 1537,-8"/>
<text text-anchor="middle" x="1624.5" y="-15.8" font-family="Times New Roman,serif" font-size="14.00">Leibniz University Hannover</text>
</g>
<g id="clust11" class="cluster"><title>cluster_10</title>
<polygon fill="lightgrey" stroke="lightgrey" points="781,-91 781,-166 935,-166 935,-91 781,-91"/>
<text text-anchor="middle" x="858" y="-98.8" font-family="Times New Roman,serif" font-size="14.00">University of Essex</text>
</g>
<g id="clust9" class="cluster"><title>cluster_8</title>
<polygon fill="lightgrey" stroke="lightgrey" points="8,-257 8,-332 387,-332 387,-257 8,-257"/>
<text text-anchor="middle" x="197.5" y="-264.8" font-family="Times New Roman,serif" font-size="14.00">Tecnolgico de Monterrey</text>
</g>
<g id="clust8" class="cluster"><title>cluster_7</title>
<polygon fill="lightgrey" stroke="lightgrey" points="395,-257 395,-332 533,-332 533,-257 395,-257"/>
<text text-anchor="middle" x="464" y="-264.8" font-family="Times New Roman,serif" font-size="14.00">University of Stirling</text>
</g>
<g id="clust7" class="cluster"><title>cluster_6</title>
<polygon fill="lightgrey" stroke="lightgrey" points="1375,-8 1375,-83 1500,-83 1500,-8 1375,-8"/>
<text text-anchor="middle" x="1437.5" y="-15.8" font-family="Times New Roman,serif" font-size="14.00">Masaryk University</text>
</g>
<g id="clust13" class="cluster"><title>cluster_12</title>
<polygon fill="lightgrey" stroke="lightgrey" points="1608,-257 1608,-332 1783,-332 1783,-257 1608,-257"/>
<text text-anchor="middle" x="1695.5" y="-264.8" font-family="Times New Roman,serif" font-size="14.00">Edinburgh Napier University</text>
</g>
<g id="clust12" class="cluster"><title>cluster_11</title>
<polygon fill="lightgrey" stroke="lightgrey" points="1056,-91 1056,-249 1184,-249 1184,-91 1056,-91"/>
<text text-anchor="middle" x="1120" y="-98.8" font-family="Times New Roman,serif" font-size="14.00">Cardiff University</text>
</g>
<g id="clust14" class="cluster"><title>cluster_13</title>
<polygon fill="lightgrey" stroke="lightgrey" points="1316,-257 1316,-332 1600,-332 1600,-257 1316,-257"/>
<text text-anchor="middle" x="1458" y="-264.8" font-family="Times New Roman,serif" font-size="14.00">University of Udine</text>
</g>
<!-- Edmund Kieran Burke -->
<g id="node1" class="node"><title>Edmund Kieran Burke</title>
<ellipse fill="lightgrey" stroke="black" cx="959" cy="-223" rx="81.4725" ry="18"/>
<text text-anchor="middle" x="959" y="-219.6" font-family="Times New Roman,serif" font-size="13.00">Edmund Kieran Burke</text>
</g>
<!-- Barry McCollum -->
<g id="node2" class="node"><title>Barry McCollum</title>
<ellipse fill="lightgrey" stroke="black" cx="1234" cy="-306" rx="65.8892" ry="18"/>
<text text-anchor="middle" x="1234" y="-302.6" font-family="Times New Roman,serif" font-size="13.00">Barry McCollum</text>
</g>
<!-- Edmund Kieran Burke&#45;&#45;Barry McCollum -->
<g id="edge2" class="edge"><title>Edmund Kieran Burke&#45;&#45;Barry McCollum</title>
<path fill="none" stroke="black" stroke-width="2" d="M998.882,-238.912C998.882,-252.547 998.882,-270 998.882,-270 998.882,-270 1170.75,-270 1170.75,-270 1170.75,-270 1170.75,-291.103 1170.75,-300.994"/>
</g>
<!-- Ender zcan -->
<g id="node3" class="node"><title>Ender zcan</title>
<ellipse fill="lightgrey" stroke="black" cx="778" cy="-223" rx="45.4614" ry="18"/>
<text text-anchor="middle" x="778" y="-219.6" font-family="Times New Roman,serif" font-size="13.00">Ender zcan</text>
</g>
<!-- Edmund Kieran Burke&#45;&#45;Ender zcan -->
<g id="edge4" class="edge"><title>Edmund Kieran Burke&#45;&#45;Ender zcan</title>
<path fill="none" stroke="black" stroke-width="2" d="M877.501,-223C859.11,-223 840.218,-223 823.904,-223"/>
</g>
<!-- Rong Qu -->
<g id="node5" class="node"><title>Rong Qu</title>
<ellipse fill="lightgrey" stroke="black" cx="1105" cy="-306" rx="39.3285" ry="18"/>
<text text-anchor="middle" x="1105" y="-302.6" font-family="Times New Roman,serif" font-size="13.00">Rong Qu</text>
</g>
<!-- Edmund Kieran Burke&#45;&#45;Rong Qu -->
<g id="edge3" class="edge"><title>Edmund Kieran Burke&#45;&#45;Rong Qu</title>
<path fill="none" stroke="black" stroke-width="2" d="M1029.67,-232C1054.28,-232 1075.86,-232 1075.86,-232 1075.86,-232 1075.86,-272.762 1075.86,-293.78"/>
</g>
<!-- Professor Graham Kendall -->
<g id="node6" class="node"><title>Professor Graham Kendall</title>
<ellipse fill="lightgrey" stroke="black" cx="646" cy="-306" rx="96.7931" ry="18"/>
<text text-anchor="middle" x="646" y="-302.6" font-family="Times New Roman,serif" font-size="13.00">Professor Graham Kendall</text>
</g>
<!-- Edmund Kieran Burke&#45;&#45;Professor Graham Kendall -->
<g id="edge1" class="edge"><title>Edmund Kieran Burke&#45;&#45;Professor Graham Kendall</title>
<path fill="none" stroke="black" stroke-width="2" d="M887.367,-231.582C887.367,-242.512 887.367,-260 887.367,-260 887.367,-260 739.271,-260 739.271,-260 739.271,-260 739.271,-289.21 739.271,-301.077"/>
</g>
<!-- Dario Landa&#45;Silva -->
<g id="node7" class="node"><title>Dario Landa&#45;Silva</title>
<ellipse fill="lightgrey" stroke="black" cx="829" cy="-306" rx="68.4428" ry="18"/>
<text text-anchor="middle" x="829" y="-302.6" font-family="Times New Roman,serif" font-size="13.00">Dario Landa&#45;Silva</text>
</g>
<!-- Edmund Kieran Burke&#45;&#45;Dario Landa&#45;Silva -->
<g id="edge7" class="edge"><title>Edmund Kieran Burke&#45;&#45;Dario Landa&#45;Silva</title>
<path fill="none" stroke="black" stroke-width="2" d="M892.294,-233.512C892.294,-250.786 892.294,-284.702 892.294,-299.184"/>
</g>
<!-- Matthew R. Hyde -->
<g id="node8" class="node"><title>Matthew R. Hyde</title>
<ellipse fill="lightgrey" stroke="black" cx="982" cy="-306" rx="66.1525" ry="18"/>
<text text-anchor="middle" x="982" y="-302.6" font-family="Times New Roman,serif" font-size="13.00">Matthew R. Hyde</text>
</g>
<!-- Edmund Kieran Burke&#45;&#45;Matthew R. Hyde -->
<g id="edge6" class="edge"><title>Edmund Kieran Burke&#45;&#45;Matthew R. Hyde</title>
<path fill="none" stroke="black" stroke-width="2" d="M957.278,-241.01C957.278,-255.313 957.278,-275.167 957.278,-289.157"/>
</g>
<!-- Gabriela Ochoa -->
<g id="node11" class="node"><title>Gabriela Ochoa</title>
<ellipse fill="lightgrey" stroke="black" cx="464" cy="-306" rx="60.7822" ry="18"/>
<text text-anchor="middle" x="464" y="-302.6" font-family="Times New Roman,serif" font-size="13.00">Gabriela Ochoa</text>
</g>
<!-- Edmund Kieran Burke&#45;&#45;Gabriela Ochoa -->
<g id="edge5" class="edge"><title>Edmund Kieran Burke&#45;&#45;Gabriela Ochoa</title>
<path fill="none" stroke="black" stroke-width="2" d="M882.441,-229.214C882.441,-237.463 882.441,-251 882.441,-251 882.441,-251 484.214,-251 484.214,-251 484.214,-251 484.214,-272.754 484.214,-288.899"/>
</g>
<!-- Ender zcan&#45;&#45;Rong Qu -->
<g id="edge12" class="edge"><title>Ender zcan&#45;&#45;Rong Qu</title>
<path fill="none" stroke="black" stroke-width="2" d="M792.13,-240.412C792.13,-256.851 792.13,-279 792.13,-279 792.13,-279 1070.85,-279 1070.85,-279 1070.85,-279 1070.85,-289.285 1070.85,-297.159"/>
</g>
<!-- Ender zcan&#45;&#45;Professor Graham Kendall -->
<g id="edge8" class="edge"><title>Ender zcan&#45;&#45;Professor Graham Kendall</title>
<path fill="none" stroke="black" stroke-width="2" d="M735.895,-230.077C735.895,-245.758 735.895,-283.277 735.895,-298.941"/>
</g>
<!-- Shahriar Asta -->
<g id="node9" class="node"><title>Shahriar Asta</title>
<ellipse fill="lightgrey" stroke="black" cx="955" cy="-57" rx="53.1217" ry="18"/>
<text text-anchor="middle" x="955" y="-53.6" font-family="Times New Roman,serif" font-size="13.00">Shahriar Asta</text>
</g>
<!-- Ender zcan&#45;&#45;Shahriar Asta -->
<g id="edge11" class="edge"><title>Ender zcan&#45;&#45;Shahriar Asta</title>
<path fill="none" stroke="black" stroke-width="2" d="M760.517,-206.17C760.517,-163.967 760.517,-57 760.517,-57 760.517,-57 844.274,-57 901.857,-57"/>
</g>
<!-- Ender zcan&#45;&#45;Gabriela Ochoa -->
<g id="edge9" class="edge"><title>Ender zcan&#45;&#45;Gabriela Ochoa</title>
<path fill="none" stroke="black" stroke-width="2" d="M738.349,-232C649.819,-232 443.786,-232 443.786,-232 443.786,-232 443.786,-266.977 443.786,-288.837"/>
</g>
<!-- Hugo Terashima&#45;Marn -->
<g id="node12" class="node"><title>Hugo Terashima&#45;Marn</title>
<ellipse fill="lightgrey" stroke="black" cx="296" cy="-306" rx="82.9999" ry="18"/>
<text text-anchor="middle" x="296" y="-302.6" font-family="Times New Roman,serif" font-size="13.00">Hugo Terashima&#45;Marn</text>
</g>
<!-- Ender zcan&#45;&#45;Hugo Terashima&#45;Marn -->
<g id="edge13" class="edge"><title>Ender zcan&#45;&#45;Hugo Terashima&#45;Marn</title>
<path fill="none" stroke="black" stroke-width="2" d="M732.22,-223C611.905,-223 296,-223 296,-223 296,-223 296,-263.579 296,-287.99"/>
</g>
<!-- Jos Carlos Ortiz&#45;Bayliss -->
<g id="node13" class="node"><title>Jos Carlos Ortiz&#45;Bayliss</title>
<ellipse fill="lightgrey" stroke="black" cx="106" cy="-306" rx="89.8965" ry="18"/>
<text text-anchor="middle" x="106" y="-302.6" font-family="Times New Roman,serif" font-size="13.00">Jos Carlos Ortiz&#45;Bayliss</text>
</g>
<!-- Ender zcan&#45;&#45;Jos Carlos Ortiz&#45;Bayliss -->
<g id="edge14" class="edge"><title>Ender zcan&#45;&#45;Jos Carlos Ortiz&#45;Bayliss</title>
<path fill="none" stroke="black" stroke-width="2" d="M738.472,-214C594.425,-214 106,-214 106,-214 106,-214 106,-261.012 106,-287.824"/>
</g>
<!-- Ahmed Kheiri -->
<g id="node16" class="node"><title>Ahmed Kheiri</title>
<ellipse fill="lightgrey" stroke="black" cx="1120" cy="-140" rx="56.4392" ry="18"/>
<text text-anchor="middle" x="1120" y="-136.6" font-family="Times New Roman,serif" font-size="13.00">Ahmed Kheiri</text>
</g>
<!-- Ender zcan&#45;&#45;Ahmed Kheiri -->
<g id="edge10" class="edge"><title>Ender zcan&#45;&#45;Ahmed Kheiri</title>
<path fill="none" stroke="black" stroke-width="2" d="M811.826,-210.92C811.826,-198.826 811.826,-182 811.826,-182 811.826,-182 1068.34,-182 1068.34,-182 1068.34,-182 1068.34,-159.349 1068.34,-147.316"/>
</g>
<!-- Jakub Mareek -->
<g id="node4" class="node"><title>Jakub Mareek</title>
<ellipse fill="lightgrey" stroke="black" cx="1246" cy="-57" rx="54.9117" ry="18"/>
<text text-anchor="middle" x="1246" y="-53.6" font-family="Times New Roman,serif" font-size="13.00">Jakub Mareek</text>
</g>
<!-- Daniel Karapetyan -->
<g id="node15" class="node"><title>Daniel Karapetyan</title>
<ellipse fill="lightgrey" stroke="black" cx="858" cy="-140" rx="69.4688" ry="18"/>
<text text-anchor="middle" x="858" y="-136.6" font-family="Times New Roman,serif" font-size="13.00">Daniel Karapetyan</text>
</g>
<!-- Shahriar Asta&#45;&#45;Daniel Karapetyan -->
<g id="edge16" class="edge"><title>Shahriar Asta&#45;&#45;Daniel Karapetyan</title>
<path fill="none" stroke="black" stroke-width="2" d="M914.712,-68.8919C914.712,-85.1184 914.712,-113.946 914.712,-129.445"/>
</g>
<!-- Shahriar Asta&#45;&#45;Ahmed Kheiri -->
<g id="edge15" class="edge"><title>Shahriar Asta&#45;&#45;Ahmed Kheiri</title>
<path fill="none" stroke="black" stroke-width="2" d="M967.773,-74.4725C967.773,-97.1907 967.773,-134 967.773,-134 967.773,-134 1022.86,-134 1066.76,-134"/>
</g>
<!-- Hana Rudov -->
<g id="node10" class="node"><title>Hana Rudov</title>
<ellipse fill="lightgrey" stroke="black" cx="1437" cy="-57" rx="48.7785" ry="18"/>
<text text-anchor="middle" x="1437" y="-53.6" font-family="Times New Roman,serif" font-size="13.00">Hana Rudov</text>
</g>
<!-- Olaf Lechtenfeld -->
<g id="node14" class="node"><title>Olaf Lechtenfeld</title>
<ellipse fill="lightgrey" stroke="black" cx="1624" cy="-57" rx="65.8892" ry="18"/>
<text text-anchor="middle" x="1624" y="-53.6" font-family="Times New Roman,serif" font-size="13.00">Olaf Lechtenfeld</text>
</g>
<!-- Daniel Karapetyan&#45;&#45;Ender zcan -->
<g id="edge17" class="edge"><title>Daniel Karapetyan&#45;&#45;Ender zcan</title>
<path fill="none" stroke="black" stroke-width="2" d="M800.171,-150.177C800.171,-164.376 800.171,-190.269 800.171,-207.046"/>
</g>
<!-- Ahmed Kheiri&#45;&#45;Edmund Kieran Burke -->
<g id="edge18" class="edge"><title>Ahmed Kheiri&#45;&#45;Edmund Kieran Burke</title>
<path fill="none" stroke="black" stroke-width="2" d="M1073.35,-150.289C1073.35,-170.623 1073.35,-214 1073.35,-214 1073.35,-214 1053.19,-214 1029.79,-214"/>
</g>
<!-- Ahmed Kheiri&#45;&#45;Daniel Karapetyan -->
<g id="edge19" class="edge"><title>Ahmed Kheiri&#45;&#45;Daniel Karapetyan</title>
<path fill="none" stroke="black" stroke-width="2" d="M1066.98,-146C1025.71,-146 968.208,-146 923.966,-146"/>
</g>
<!-- Rhyd Lewis -->
<g id="node17" class="node"><title>Rhyd Lewis</title>
<ellipse fill="lightgrey" stroke="black" cx="1127" cy="-223" rx="48.7785" ry="18"/>
<text text-anchor="middle" x="1127" y="-219.6" font-family="Times New Roman,serif" font-size="13.00">Rhyd Lewis</text>
</g>
<!-- Ahmed Kheiri&#45;&#45;Rhyd Lewis -->
<g id="edge20" class="edge"><title>Ahmed Kheiri&#45;&#45;Rhyd Lewis</title>
<path fill="none" stroke="black" stroke-width="2" d="M1127,-158.01C1127,-171.836 1127,-190.85 1127,-204.739"/>
</g>
<!-- Rhyd Lewis&#45;&#45;Edmund Kieran Burke -->
<g id="edge24" class="edge"><title>Rhyd Lewis&#45;&#45;Edmund Kieran Burke</title>
<path fill="none" stroke="black" stroke-width="2" d="M1077.96,-223C1066.24,-223 1053.41,-223 1040.66,-223"/>
</g>
<!-- Rhyd Lewis&#45;&#45;Barry McCollum -->
<g id="edge22" class="edge"><title>Rhyd Lewis&#45;&#45;Barry McCollum</title>
<path fill="none" stroke="black" stroke-width="2" d="M1173.19,-228.705C1173.19,-243.501 1173.19,-283.073 1173.19,-299.108"/>
</g>
<!-- Rhyd Lewis&#45;&#45;Rong Qu -->
<g id="edge23" class="edge"><title>Rhyd Lewis&#45;&#45;Rong Qu</title>
<path fill="none" stroke="black" stroke-width="2" d="M1111.26,-240.198C1111.26,-254.158 1111.26,-273.782 1111.26,-287.963"/>
</g>
<!-- Ben Paechter -->
<g id="node18" class="node"><title>Ben Paechter</title>
<ellipse fill="lightgrey" stroke="black" cx="1670" cy="-306" rx="53.8856" ry="18"/>
<text text-anchor="middle" x="1670" y="-302.6" font-family="Times New Roman,serif" font-size="13.00">Ben Paechter</text>
</g>
<!-- Rhyd Lewis&#45;&#45;Ben Paechter -->
<g id="edge21" class="edge"><title>Rhyd Lewis&#45;&#45;Ben Paechter</title>
<path fill="none" stroke="black" stroke-width="2" d="M1169.16,-214C1293.97,-214 1653,-214 1653,-214 1653,-214 1653,-262.045 1653,-288.696"/>
</g>
<!-- Luca Di Gaspero -->
<g id="node19" class="node"><title>Luca Di Gaspero</title>
<ellipse fill="lightgrey" stroke="black" cx="1527" cy="-306" rx="65.1254" ry="18"/>
<text text-anchor="middle" x="1527" y="-302.6" font-family="Times New Roman,serif" font-size="13.00">Luca Di Gaspero</text>
</g>
<!-- Rhyd Lewis&#45;&#45;Luca Di Gaspero -->
<g id="edge26" class="edge"><title>Rhyd Lewis&#45;&#45;Luca Di Gaspero</title>
<path fill="none" stroke="black" stroke-width="2" d="M1175.95,-223C1271.54,-223 1473.79,-223 1473.79,-223 1473.79,-223 1473.79,-273.154 1473.79,-295.488"/>
</g>
<!-- Andrea Schaerf -->
<g id="node20" class="node"><title>Andrea Schaerf</title>
<ellipse fill="lightgrey" stroke="black" cx="1384" cy="-306" rx="60.0185" ry="18"/>
<text text-anchor="middle" x="1384" y="-302.6" font-family="Times New Roman,serif" font-size="13.00">Andrea Schaerf</text>
</g>
<!-- Rhyd Lewis&#45;&#45;Andrea Schaerf -->
<g id="edge25" class="edge"><title>Rhyd Lewis&#45;&#45;Andrea Schaerf</title>
<path fill="none" stroke="black" stroke-width="2" d="M1169.3,-232C1235.52,-232 1356.18,-232 1356.18,-232 1356.18,-232 1356.18,-268.179 1356.18,-289.943"/>
</g>
</g>
</svg>
