<?xml version="1.0" encoding="UTF-8" standalone="no"?>
<!DOCTYPE svg PUBLIC "-//W3C//DTD SVG 1.1//EN"
 "http://www.w3.org/Graphics/SVG/1.1/DTD/svg11.dtd">
<!-- Generated by graphviz version 2.38.0 (20140413.2041)
 -->
<!-- Title: G Pages: 1 -->
<svg width="936pt" height="231pt"
 viewBox="0.00 0.00 936.00 231.16" xmlns="http://www.w3.org/2000/svg" xmlns:xlink="http://www.w3.org/1999/xlink">
<g id="graph0" class="graph" transform="scale(0.872321 0.872321) rotate(0) translate(4 261)">
<title>G</title>
<polygon fill="white" stroke="none" points="-4,4 -4,-261 1069,-261 1069,4 -4,4"/>
<g id="clust1" class="cluster"><title>cluster_0</title>
<polygon fill="lightgrey" stroke="lightgrey" points="408,-8 408,-83 742,-83 742,-8 408,-8"/>
<text text-anchor="middle" x="575" y="-15.8" font-family="Times New Roman,serif" font-size="14.00">Lecturer of Computer Science and Operational Research</text>
</g>
<g id="clust4" class="cluster"><title>cluster_3</title>
<polygon fill="lightgrey" stroke="lightgrey" points="8,-174 8,-249 217,-249 217,-174 8,-174"/>
<text text-anchor="middle" x="112.5" y="-181.8" font-family="Times New Roman,serif" font-size="14.00">Queen Mary University of London</text>
</g>
<g id="clust2" class="cluster"><title>cluster_1</title>
<polygon fill="lightgrey" stroke="lightgrey" points="89,-8 89,-83 393,-83 393,-8 89,-8"/>
<text text-anchor="middle" x="241" y="-15.8" font-family="Times New Roman,serif" font-size="14.00">University of Nottingham</text>
</g>
<g id="clust3" class="cluster"><title>cluster_2</title>
<polygon fill="lightgrey" stroke="lightgrey" points="929,-8 929,-166 1057,-166 1057,-8 929,-8"/>
<text text-anchor="middle" x="993" y="-15.8" font-family="Times New Roman,serif" font-size="14.00">University of Exeter</text>
</g>
<g id="clust6" class="cluster"><title>cluster_5</title>
<polygon fill="lightgrey" stroke="lightgrey" points="390,-91 390,-166 544,-166 544,-91 390,-91"/>
<text text-anchor="middle" x="467" y="-98.8" font-family="Times New Roman,serif" font-size="14.00">University of Essex</text>
</g>
<g id="clust5" class="cluster"><title>cluster_4</title>
<polygon fill="lightgrey" stroke="lightgrey" points="177,-91 177,-166 382,-166 382,-91 177,-91"/>
<text text-anchor="middle" x="279.5" y="-98.8" font-family="Times New Roman,serif" font-size="14.00">PhD &#45; Data &amp; Computer Scientist</text>
</g>
<g id="clust7" class="cluster"><title>cluster_6</title>
<polygon fill="lightgrey" stroke="lightgrey" points="618,-91 618,-166 921,-166 921,-91 618,-91"/>
<text text-anchor="middle" x="769.5" y="-98.8" font-family="Times New Roman,serif" font-size="14.00">Nanjing University of Aeronautics and Astronautics</text>
</g>
<g id="clust8" class="cluster"><title>cluster_7</title>
<polygon fill="lightgrey" stroke="lightgrey" points="53,-91 53,-166 169,-166 169,-91 53,-91"/>
<text text-anchor="middle" x="111" y="-98.8" font-family="Times New Roman,serif" font-size="14.00">Cardiff University</text>
</g>
<!-- Ender zcan -->
<g id="node1" class="node"><title>Ender zcan</title>
<ellipse fill="lightgrey" stroke="black" cx="467" cy="-57" rx="45.4614" ry="18"/>
<text text-anchor="middle" x="467" y="-53.6" font-family="Times New Roman,serif" font-size="13.00">Ender zcan</text>
</g>
<!-- Andrew J Parkes -->
<g id="node2" class="node"><title>Andrew J Parkes</title>
<ellipse fill="lightgrey" stroke="black" cx="321" cy="-57" rx="63.5992" ry="18"/>
<text text-anchor="middle" x="321" y="-53.6" font-family="Times New Roman,serif" font-size="13.00">Andrew J Parkes</text>
</g>
<!-- Ender zcan&#45;&#45;Andrew J Parkes -->
<g id="edge2" class="edge"><title>Ender zcan&#45;&#45;Andrew J Parkes</title>
<path fill="none" stroke="black" stroke-width="2" d="M423.985,-51C410.611,-51 395.611,-51 381.286,-51"/>
</g>
<!-- Ender zcan&#45;&#45;Andrew J Parkes -->
<g id="edge6" class="edge"><title>Ender zcan&#45;&#45;Andrew J Parkes</title>
<path fill="none" stroke="black" stroke-width="2" d="M438.155,-43C416.133,-43 385.523,-43 361.114,-43"/>
</g>
<!-- Ender zcan&#45;&#45;Andrew J Parkes -->
<g id="edge10" class="edge"><title>Ender zcan&#45;&#45;Andrew J Parkes</title>
<path fill="none" stroke="black" stroke-width="2" d="M429.021,-47C412.292,-47 392.347,-47 374.176,-47"/>
</g>
<!-- Edmund Kieran Burke -->
<g id="node6" class="node"><title>Edmund Kieran Burke</title>
<ellipse fill="lightgrey" stroke="black" cx="112" cy="-223" rx="81.4725" ry="18"/>
<text text-anchor="middle" x="112" y="-219.6" font-family="Times New Roman,serif" font-size="13.00">Edmund Kieran Burke</text>
</g>
<!-- Ender zcan&#45;&#45;Edmund Kieran Burke -->
<g id="edge1" class="edge"><title>Ender zcan&#45;&#45;Edmund Kieran Burke</title>
<path fill="none" stroke="black" stroke-width="2" d="M432.889,-69.037C432.889,-76.626 432.889,-85 432.889,-85 432.889,-85 168.851,-85 168.851,-85 168.851,-85 168.851,-175.664 168.851,-210.017"/>
</g>
<!-- Ender zcan&#45;&#45;Edmund Kieran Burke -->
<g id="edge5" class="edge"><title>Ender zcan&#45;&#45;Edmund Kieran Burke</title>
<path fill="none" stroke="black" stroke-width="2" d="M444.26,-72.9061C444.26,-82.9343 444.26,-94 444.26,-94 444.26,-94 177.063,-94 177.063,-94 177.063,-94 177.063,-180.806 177.063,-212.002"/>
</g>
<!-- Ender zcan&#45;&#45;Edmund Kieran Burke -->
<g id="edge9" class="edge"><title>Ender zcan&#45;&#45;Edmund Kieran Burke</title>
<path fill="none" stroke="black" stroke-width="2" d="M455.63,-74.5011C455.63,-87.8638 455.63,-104 455.63,-104 455.63,-104 185.274,-104 185.274,-104 185.274,-104 185.274,-187.935 185.274,-214.821"/>
</g>
<!-- Shahriar Asta -->
<g id="node7" class="node"><title>Shahriar Asta</title>
<ellipse fill="lightgrey" stroke="black" cx="321" cy="-140" rx="53.1217" ry="18"/>
<text text-anchor="middle" x="321" y="-136.6" font-family="Times New Roman,serif" font-size="13.00">Shahriar Asta</text>
</g>
<!-- Ender zcan&#45;&#45;Shahriar Asta -->
<g id="edge3" class="edge"><title>Ender zcan&#45;&#45;Shahriar Asta</title>
<path fill="none" stroke="black" stroke-width="2" d="M467,-75.027C467,-91.3976 467,-113 467,-113 467,-113 352.836,-113 352.836,-113 352.836,-113 352.836,-119.132 352.836,-125.551"/>
</g>
<!-- Ender zcan&#45;&#45;Shahriar Asta -->
<g id="edge7" class="edge"><title>Ender zcan&#45;&#45;Shahriar Asta</title>
<path fill="none" stroke="black" stroke-width="2" d="M438.286,-71C417.585,-71 393.277,-71 393.277,-71 393.277,-71 393.277,-134 393.277,-134 393.277,-134 383.532,-134 371.199,-134"/>
</g>
<!-- Ender zcan&#45;&#45;Shahriar Asta -->
<g id="edge11" class="edge"><title>Ender zcan&#45;&#45;Shahriar Asta</title>
<path fill="none" stroke="black" stroke-width="2" d="M428.933,-67C409.142,-67 389.038,-67 389.038,-67 389.038,-67 389.038,-128 389.038,-128 389.038,-128 375.546,-128 360.578,-128"/>
</g>
<!-- Mustafa Msr -->
<g id="node9" class="node"><title>Mustafa Msr</title>
<ellipse fill="lightgrey" stroke="black" cx="680" cy="-140" rx="51.5957" ry="18"/>
<text text-anchor="middle" x="680" y="-136.6" font-family="Times New Roman,serif" font-size="13.00">Mustafa Msr</text>
</g>
<!-- Ender zcan&#45;&#45;Mustafa Msr -->
<g id="edge4" class="edge"><title>Ender zcan&#45;&#45;Mustafa Msr</title>
<path fill="none" stroke="black" stroke-width="2" d="M506.449,-48C574.303,-48 705.899,-48 705.899,-48 705.899,-48 705.899,-98.1454 705.899,-124.393"/>
</g>
<!-- Ender zcan&#45;&#45;Mustafa Msr -->
<g id="edge8" class="edge"><title>Ender zcan&#45;&#45;Mustafa Msr</title>
<path fill="none" stroke="black" stroke-width="2" d="M506.679,-66C561.601,-66 654.101,-66 654.101,-66 654.101,-66 654.101,-102.584 654.101,-124.307"/>
</g>
<!-- Ender zcan&#45;&#45;Mustafa Msr -->
<g id="edge12" class="edge"><title>Ender zcan&#45;&#45;Mustafa Msr</title>
<path fill="none" stroke="black" stroke-width="2" d="M512.694,-57C575.28,-57 680,-57 680,-57 680,-57 680,-97.5793 680,-121.99"/>
</g>
<!-- Andrew J Parkes&#45;&#45;Edmund Kieran Burke -->
<g id="edge13" class="edge"><title>Andrew J Parkes&#45;&#45;Edmund Kieran Burke</title>
<path fill="none" stroke="black" stroke-width="2" d="M265.792,-66.2913C265.792,-99.8752 265.792,-213 265.792,-213 265.792,-213 221.101,-213 179.903,-213"/>
</g>
<!-- Andrew J Parkes&#45;&#45;Edmund Kieran Burke -->
<g id="edge17" class="edge"><title>Andrew J Parkes&#45;&#45;Edmund Kieran Burke</title>
<path fill="none" stroke="black" stroke-width="2" d="M377.64,-65.3073C377.64,-98.5235 377.64,-220 377.64,-220 377.64,-220 270.607,-220 192.422,-220"/>
</g>
<!-- Andrew J Parkes&#45;&#45;Edmund Kieran Burke -->
<g id="edge21" class="edge"><title>Andrew J Parkes&#45;&#45;Edmund Kieran Burke</title>
<path fill="none" stroke="black" stroke-width="2" d="M381.22,-63.0504C381.22,-93.3341 381.22,-227 381.22,-227 381.22,-227 271.068,-227 191.682,-227"/>
</g>
<!-- Andrew J Parkes&#45;&#45;Shahriar Asta -->
<g id="edge14" class="edge"><title>Andrew J Parkes&#45;&#45;Shahriar Asta</title>
<path fill="none" stroke="black" stroke-width="2" d="M331.612,-75.0098C331.612,-89.027 331.612,-108.375 331.612,-122.311"/>
</g>
<!-- Andrew J Parkes&#45;&#45;Shahriar Asta -->
<g id="edge18" class="edge"><title>Andrew J Parkes&#45;&#45;Shahriar Asta</title>
<path fill="none" stroke="black" stroke-width="2" d="M310.388,-75.0098C310.388,-89.027 310.388,-108.375 310.388,-122.311"/>
</g>
<!-- Andrew J Parkes&#45;&#45;Shahriar Asta -->
<g id="edge22" class="edge"><title>Andrew J Parkes&#45;&#45;Shahriar Asta</title>
<path fill="none" stroke="black" stroke-width="2" d="M289.164,-72.6117C289.164,-87.8264 289.164,-110.771 289.164,-125.569"/>
</g>
<!-- Daniel Karapetyan -->
<g id="node8" class="node"><title>Daniel Karapetyan</title>
<ellipse fill="lightgrey" stroke="black" cx="467" cy="-140" rx="69.4688" ry="18"/>
<text text-anchor="middle" x="467" y="-136.6" font-family="Times New Roman,serif" font-size="13.00">Daniel Karapetyan</text>
</g>
<!-- Andrew J Parkes&#45;&#45;Daniel Karapetyan -->
<g id="edge15" class="edge"><title>Andrew J Parkes&#45;&#45;Daniel Karapetyan</title>
<path fill="none" stroke="black" stroke-width="2" d="M384.57,-55C401.667,-55 415.518,-55 415.518,-55 415.518,-55 415.518,-104.318 415.518,-127.822"/>
</g>
<!-- Andrew J Parkes&#45;&#45;Daniel Karapetyan -->
<g id="edge19" class="edge"><title>Andrew J Parkes&#45;&#45;Daniel Karapetyan</title>
<path fill="none" stroke="black" stroke-width="2" d="M384.86,-59C398.819,-59 409.517,-59 409.517,-59 409.517,-59 409.517,-107.945 409.517,-129.741"/>
</g>
<!-- Andrew J Parkes&#45;&#45;Daniel Karapetyan -->
<g id="edge23" class="edge"><title>Andrew J Parkes&#45;&#45;Daniel Karapetyan</title>
<path fill="none" stroke="black" stroke-width="2" d="M381.404,-63C393.986,-63 403.517,-63 403.517,-63 403.517,-63 403.517,-113.344 403.517,-132.617"/>
</g>
<!-- Rhyd Lewis -->
<g id="node10" class="node"><title>Rhyd Lewis</title>
<ellipse fill="lightgrey" stroke="black" cx="112" cy="-140" rx="48.7785" ry="18"/>
<text text-anchor="middle" x="112" y="-136.6" font-family="Times New Roman,serif" font-size="13.00">Rhyd Lewis</text>
</g>
<!-- Andrew J Parkes&#45;&#45;Rhyd Lewis -->
<g id="edge16" class="edge"><title>Andrew J Parkes&#45;&#45;Rhyd Lewis</title>
<path fill="none" stroke="black" stroke-width="2" d="M263.644,-65.1644C263.644,-87.6802 263.644,-149 263.644,-149 263.644,-149 199.111,-149 154.241,-149"/>
</g>
<!-- Andrew J Parkes&#45;&#45;Rhyd Lewis -->
<g id="edge20" class="edge"><title>Andrew J Parkes&#45;&#45;Rhyd Lewis</title>
<path fill="none" stroke="black" stroke-width="2" d="M261.496,-63.5129C261.496,-83.0793 261.496,-140 261.496,-140 261.496,-140 204.55,-140 160.951,-140"/>
</g>
<!-- Andrew J Parkes&#45;&#45;Rhyd Lewis -->
<g id="edge24" class="edge"><title>Andrew J Parkes&#45;&#45;Rhyd Lewis</title>
<path fill="none" stroke="black" stroke-width="2" d="M259.348,-61.8553C259.348,-78.3184 259.348,-131 259.348,-131 259.348,-131 197.765,-131 154.224,-131"/>
</g>
<!-- Warren G. Jackson -->
<g id="node3" class="node"><title>Warren G. Jackson</title>
<ellipse fill="lightgrey" stroke="black" cx="168" cy="-57" rx="71.259" ry="18"/>
<text text-anchor="middle" x="168" y="-53.6" font-family="Times New Roman,serif" font-size="13.00">Warren G. Jackson</text>
</g>
<!-- Ed Keedwell -->
<g id="node4" class="node"><title>Ed Keedwell</title>
<ellipse fill="lightgrey" stroke="black" cx="993" cy="-57" rx="51.5957" ry="18"/>
<text text-anchor="middle" x="993" y="-53.6" font-family="Times New Roman,serif" font-size="13.00">Ed Keedwell</text>
</g>
<!-- Dragan Savic -->
<g id="node5" class="node"><title>Dragan Savic</title>
<ellipse fill="lightgrey" stroke="black" cx="993" cy="-140" rx="52.3583" ry="18"/>
<text text-anchor="middle" x="993" y="-136.6" font-family="Times New Roman,serif" font-size="13.00">Dragan Savic</text>
</g>
<!-- Ed Keedwell&#45;&#45;Dragan Savic -->
<g id="edge25" class="edge"><title>Ed Keedwell&#45;&#45;Dragan Savic</title>
<path fill="none" stroke="black" stroke-width="2" d="M993,-75.0098C993,-88.8363 993,-107.85 993,-121.739"/>
</g>
<!-- Shahriar Asta&#45;&#45;Daniel Karapetyan -->
<g id="edge26" class="edge"><title>Shahriar Asta&#45;&#45;Daniel Karapetyan</title>
<path fill="none" stroke="black" stroke-width="2" d="M360.895,-152C377.612,-152 397.268,-152 415.089,-152"/>
</g>
<!-- Shahriar Asta&#45;&#45;Daniel Karapetyan -->
<g id="edge27" class="edge"><title>Shahriar Asta&#45;&#45;Daniel Karapetyan</title>
<path fill="none" stroke="black" stroke-width="2" d="M371.245,-146C380.978,-146 391.311,-146 401.45,-146"/>
</g>
<!-- Shahriar Asta&#45;&#45;Daniel Karapetyan -->
<g id="edge28" class="edge"><title>Shahriar Asta&#45;&#45;Daniel Karapetyan</title>
<path fill="none" stroke="black" stroke-width="2" d="M374.122,-140C381.705,-140 389.597,-140 397.437,-140"/>
</g>
<!-- Daniel Karapetyan&#45;&#45;Ender zcan -->
<g id="edge29" class="edge"><title>Daniel Karapetyan&#45;&#45;Ender zcan</title>
<path fill="none" stroke="black" stroke-width="2" d="M501.111,-123.997C501.111,-107.886 501.111,-83.4055 501.111,-68.925"/>
</g>
<!-- Daniel Karapetyan&#45;&#45;Ender zcan -->
<g id="edge30" class="edge"><title>Daniel Karapetyan&#45;&#45;Ender zcan</title>
<path fill="none" stroke="black" stroke-width="2" d="M489.74,-122.802C489.74,-108.083 489.74,-87.065 489.74,-72.7719"/>
</g>
<!-- Daniel Karapetyan&#45;&#45;Ender zcan -->
<g id="edge31" class="edge"><title>Daniel Karapetyan&#45;&#45;Ender zcan</title>
<path fill="none" stroke="black" stroke-width="2" d="M478.37,-121.99C478.37,-107.973 478.37,-88.6246 478.37,-74.6895"/>
</g>
<!-- Mustafa Msr&#45;&#45;Edmund Kieran Burke -->
<g id="edge32" class="edge"><title>Mustafa Msr&#45;&#45;Edmund Kieran Burke</title>
<path fill="none" stroke="black" stroke-width="2" d="M680,-158.124C680,-185.439 680,-234 680,-234 680,-234 325.476,-234 176.604,-234"/>
</g>
<!-- Rhyd Lewis&#45;&#45;Edmund Kieran Burke -->
<g id="edge33" class="edge"><title>Rhyd Lewis&#45;&#45;Edmund Kieran Burke</title>
<path fill="none" stroke="black" stroke-width="2" d="M112,-158.01C112,-171.836 112,-190.85 112,-204.739"/>
</g>
<!-- Rhyd Lewis&#45;&#45;Edmund Kieran Burke -->
<g id="edge34" class="edge"><title>Rhyd Lewis&#45;&#45;Edmund Kieran Burke</title>
<path fill="none" stroke="black" stroke-width="2" d="M87.6805,-155.612C87.6805,-169.887 87.6805,-190.968 87.6805,-205.739"/>
</g>
<!-- Rhyd Lewis&#45;&#45;Edmund Kieran Burke -->
<g id="edge35" class="edge"><title>Rhyd Lewis&#45;&#45;Edmund Kieran Burke</title>
<path fill="none" stroke="black" stroke-width="2" d="M136.32,-155.612C136.32,-169.887 136.32,-190.968 136.32,-205.739"/>
</g>
</g>
</svg>
