<?xml version="1.0" encoding="UTF-8" standalone="no"?>
<!DOCTYPE svg PUBLIC "-//W3C//DTD SVG 1.1//EN"
 "http://www.w3.org/Graphics/SVG/1.1/DTD/svg11.dtd">
<!-- Generated by graphviz version 2.38.0 (20140413.2041)
 -->
<!-- Title: G Pages: 1 -->
<svg width="936pt" height="201pt"
 viewBox="0.00 0.00 936.00 200.84" xmlns="http://www.w3.org/2000/svg" xmlns:xlink="http://www.w3.org/1999/xlink">
<g id="graph0" class="graph" transform="scale(0.757895 0.757895) rotate(0) translate(4 261)">
<title>G</title>
<polygon fill="white" stroke="none" points="-4,4 -4,-261 1231,-261 1231,4 -4,4"/>
<g id="clust1" class="cluster"><title>cluster_0</title>
<polygon fill="lightgrey" stroke="lightgrey" points="408,-8 408,-83 742,-83 742,-8 408,-8"/>
<text text-anchor="middle" x="575" y="-15.8" font-family="Times New Roman,serif" font-size="14.00">Lecturer of Computer Science and Operational Research</text>
</g>
<g id="clust4" class="cluster"><title>cluster_3</title>
<polygon fill="lightgrey" stroke="lightgrey" points="8,-174 8,-249 217,-249 217,-174 8,-174"/>
<text text-anchor="middle" x="112.5" y="-181.8" font-family="Times New Roman,serif" font-size="14.00">Queen Mary University of London</text>
</g>
<g id="clust6" class="cluster"><title>cluster_5</title>
<polygon fill="lightgrey" stroke="lightgrey" points="390,-91 390,-166 544,-166 544,-91 390,-91"/>
<text text-anchor="middle" x="467" y="-98.8" font-family="Times New Roman,serif" font-size="14.00">University of Essex</text>
</g>
<g id="clust5" class="cluster"><title>cluster_4</title>
<polygon fill="lightgrey" stroke="lightgrey" points="177,-91 177,-166 382,-166 382,-91 177,-91"/>
<text text-anchor="middle" x="279.5" y="-98.8" font-family="Times New Roman,serif" font-size="14.00">PhD &#45; Data &amp; Computer Scientist</text>
</g>
<g id="clust3" class="cluster"><title>cluster_2</title>
<polygon fill="lightgrey" stroke="lightgrey" points="1091,-8 1091,-166 1219,-166 1219,-8 1091,-8"/>
<text text-anchor="middle" x="1155" y="-15.8" font-family="Times New Roman,serif" font-size="14.00">University of Exeter</text>
</g>
<g id="clust2" class="cluster"><title>cluster_1</title>
<polygon fill="lightgrey" stroke="lightgrey" points="89,-8 89,-83 393,-83 393,-8 89,-8"/>
<text text-anchor="middle" x="241" y="-15.8" font-family="Times New Roman,serif" font-size="14.00">University of Nottingham</text>
</g>
<g id="clust7" class="cluster"><title>cluster_6</title>
<polygon fill="lightgrey" stroke="lightgrey" points="780,-91 780,-166 1083,-166 1083,-91 780,-91"/>
<text text-anchor="middle" x="931.5" y="-98.8" font-family="Times New Roman,serif" font-size="14.00">Nanjing University of Aeronautics and Astronautics</text>
</g>
<g id="clust8" class="cluster"><title>cluster_7</title>
<polygon fill="lightgrey" stroke="lightgrey" points="53,-91 53,-166 169,-166 169,-91 53,-91"/>
<text text-anchor="middle" x="111" y="-98.8" font-family="Times New Roman,serif" font-size="14.00">Cardiff University</text>
</g>
<!-- Ender zcan -->
<g id="node1" class="node"><title>Ender zcan</title>
<ellipse fill="lightgrey" stroke="black" cx="467" cy="-57" rx="45.4614" ry="18"/>
<text text-anchor="middle" x="467" y="-53.6" font-family="Times New Roman,serif" font-size="13.00">Ender zcan</text>
</g>
<!-- Andrew J Parkes -->
<g id="node2" class="node"><title>Andrew J Parkes</title>
<ellipse fill="lightgrey" stroke="black" cx="321" cy="-57" rx="63.5992" ry="18"/>
<text text-anchor="middle" x="321" y="-53.6" font-family="Times New Roman,serif" font-size="13.00">Andrew J Parkes</text>
</g>
<!-- Ender zcan&#45;&#45;Andrew J Parkes -->
<g id="edge2" class="edge"><title>Ender zcan&#45;&#45;Andrew J Parkes</title>
<path fill="none" stroke="black" stroke-width="2" d="M441.569,-42C418.039,-42 382.832,-42 356.529,-42"/>
</g>
<!-- Ender zcan&#45;&#45;Andrew J Parkes -->
<g id="edge6" class="edge"><title>Ender zcan&#45;&#45;Andrew J Parkes</title>
<path fill="none" stroke="black" stroke-width="2" d="M446.082,-73C421.008,-73 378.829,-73 350.466,-73"/>
</g>
<!-- Ender zcan&#45;&#45;Andrew J Parkes -->
<g id="edge10" class="edge"><title>Ender zcan&#45;&#45;Andrew J Parkes</title>
<path fill="none" stroke="black" stroke-width="2" d="M435.32,-70C414.857,-70 387.934,-70 365.356,-70"/>
</g>
<!-- Ender zcan&#45;&#45;Andrew J Parkes -->
<g id="edge14" class="edge"><title>Ender zcan&#45;&#45;Andrew J Parkes</title>
<path fill="none" stroke="black" stroke-width="2" d="M429.021,-67C412.292,-67 392.347,-67 374.176,-67"/>
</g>
<!-- Ender zcan&#45;&#45;Andrew J Parkes -->
<g id="edge18" class="edge"><title>Ender zcan&#45;&#45;Andrew J Parkes</title>
<path fill="none" stroke="black" stroke-width="2" d="M424.771,-64C410.791,-64 394.968,-64 379.966,-64"/>
</g>
<!-- Ender zcan&#45;&#45;Andrew J Parkes -->
<g id="edge22" class="edge"><title>Ender zcan&#45;&#45;Andrew J Parkes</title>
<path fill="none" stroke="black" stroke-width="2" d="M423.195,-62C410.344,-62 396.048,-62 382.317,-62"/>
</g>
<!-- Ender zcan&#45;&#45;Andrew J Parkes -->
<g id="edge26" class="edge"><title>Ender zcan&#45;&#45;Andrew J Parkes</title>
<path fill="none" stroke="black" stroke-width="2" d="M421.605,-59C409.886,-59 397.054,-59 384.593,-59"/>
</g>
<!-- Ender zcan&#45;&#45;Andrew J Parkes -->
<g id="edge30" class="edge"><title>Ender zcan&#45;&#45;Andrew J Parkes</title>
<path fill="none" stroke="black" stroke-width="2" d="M421.205,-56C409.665,-56 397.066,-56 384.817,-56"/>
</g>
<!-- Ender zcan&#45;&#45;Andrew J Parkes -->
<g id="edge34" class="edge"><title>Ender zcan&#45;&#45;Andrew J Parkes</title>
<path fill="none" stroke="black" stroke-width="2" d="M422.402,-53C410.075,-53 396.467,-53 383.331,-53"/>
</g>
<!-- Ender zcan&#45;&#45;Andrew J Parkes -->
<g id="edge38" class="edge"><title>Ender zcan&#45;&#45;Andrew J Parkes</title>
<path fill="none" stroke="black" stroke-width="2" d="M423.985,-51C410.611,-51 395.611,-51 381.286,-51"/>
</g>
<!-- Ender zcan&#45;&#45;Andrew J Parkes -->
<g id="edge42" class="edge"><title>Ender zcan&#45;&#45;Andrew J Parkes</title>
<path fill="none" stroke="black" stroke-width="2" d="M427.49,-48C411.783,-48 393.434,-48 376.435,-48"/>
</g>
<!-- Ender zcan&#45;&#45;Andrew J Parkes -->
<g id="edge46" class="edge"><title>Ender zcan&#45;&#45;Andrew J Parkes</title>
<path fill="none" stroke="black" stroke-width="2" d="M432.769,-45C413.637,-45 389.5,-45 368.556,-45"/>
</g>
<!-- Edmund Kieran Burke -->
<g id="node6" class="node"><title>Edmund Kieran Burke</title>
<ellipse fill="lightgrey" stroke="black" cx="112" cy="-223" rx="81.4725" ry="18"/>
<text text-anchor="middle" x="112" y="-219.6" font-family="Times New Roman,serif" font-size="13.00">Edmund Kieran Burke</text>
</g>
<!-- Ender zcan&#45;&#45;Edmund Kieran Burke -->
<g id="edge1" class="edge"><title>Ender zcan&#45;&#45;Edmund Kieran Burke</title>
<path fill="none" stroke="black" stroke-width="2" d="M451.84,-39.917C451.84,-28.2891 451.84,-15 451.84,-15 451.84,-15 51.0433,-15 51.0433,-15 51.0433,-15 51.0433,-166.526 51.0433,-210.918"/>
</g>
<!-- Ender zcan&#45;&#45;Edmund Kieran Burke -->
<g id="edge5" class="edge"><title>Ender zcan&#45;&#45;Edmund Kieran Burke</title>
<path fill="none" stroke="black" stroke-width="2" d="M500.353,-44.6543C500.353,-29.5607 500.353,-6 500.353,-6 500.353,-6 34.6197,-6 34.6197,-6 34.6197,-6 34.6197,-182.687 34.6197,-217.196"/>
</g>
<!-- Ender zcan&#45;&#45;Edmund Kieran Burke -->
<g id="edge9" class="edge"><title>Ender zcan&#45;&#45;Edmund Kieran Burke</title>
<path fill="none" stroke="black" stroke-width="2" d="M494.288,-42.5379C494.288,-27.771 494.288,-7 494.288,-7 494.288,-7 36.6726,-7 36.6726,-7 36.6726,-7 36.6726,-178.334 36.6726,-215.813"/>
</g>
<!-- Ender zcan&#45;&#45;Edmund Kieran Burke -->
<g id="edge13" class="edge"><title>Ender zcan&#45;&#45;Edmund Kieran Burke</title>
<path fill="none" stroke="black" stroke-width="2" d="M482.16,-39.9418C482.16,-26.1453 482.16,-9 482.16,-9 482.16,-9 40.7785,-9 40.7785,-9 40.7785,-9 40.7785,-173.576 40.7785,-214.077"/>
</g>
<!-- Ender zcan&#45;&#45;Edmund Kieran Burke -->
<g id="edge17" class="edge"><title>Ender zcan&#45;&#45;Edmund Kieran Burke</title>
<path fill="none" stroke="black" stroke-width="2" d="M476.096,-39.3468C476.096,-26.3745 476.096,-11 476.096,-11 476.096,-11 42.8315,-11 42.8315,-11 42.8315,-11 42.8315,-171.867 42.8315,-213.34"/>
</g>
<!-- Ender zcan&#45;&#45;Edmund Kieran Burke -->
<g id="edge21" class="edge"><title>Ender zcan&#45;&#45;Edmund Kieran Burke</title>
<path fill="none" stroke="black" stroke-width="2" d="M470.032,-38.9561C470.032,-26.4367 470.032,-12 470.032,-12 470.032,-12 44.8844,-12 44.8844,-12 44.8844,-12 44.8844,-169.961 44.8844,-212.536"/>
</g>
<!-- Ender zcan&#45;&#45;Edmund Kieran Burke -->
<g id="edge25" class="edge"><title>Ender zcan&#45;&#45;Edmund Kieran Burke</title>
<path fill="none" stroke="black" stroke-width="2" d="M439.712,-42.4778C439.712,-31.3896 439.712,-18 439.712,-18 439.712,-18 55.1491,-18 55.1491,-18 55.1491,-18 55.1491,-164.619 55.1491,-209.864"/>
</g>
<!-- Ender zcan&#45;&#45;Edmund Kieran Burke -->
<g id="edge29" class="edge"><title>Ender zcan&#45;&#45;Edmund Kieran Burke</title>
<path fill="none" stroke="black" stroke-width="2" d="M445.776,-40.7305C445.776,-29.6563 445.776,-17 445.776,-17 445.776,-17 53.0962,-17 53.0962,-17 53.0962,-17 53.0962,-165.698 53.0962,-210.424"/>
</g>
<!-- Ender zcan&#45;&#45;Edmund Kieran Burke -->
<g id="edge33" class="edge"><title>Ender zcan&#45;&#45;Edmund Kieran Burke</title>
<path fill="none" stroke="black" stroke-width="2" d="M506.417,-47.9423C506.417,-33.0439 506.417,-5 506.417,-5 506.417,-5 32.5667,-5 32.5667,-5 32.5667,-5 32.5667,-188.701 32.5667,-218.84"/>
</g>
<!-- Ender zcan&#45;&#45;Edmund Kieran Burke -->
<g id="edge37" class="edge"><title>Ender zcan&#45;&#45;Edmund Kieran Burke</title>
<path fill="none" stroke="black" stroke-width="2" d="M457.904,-39.0133C457.904,-27.2302 457.904,-14 457.904,-14 457.904,-14 48.9903,-14 48.9903,-14 48.9903,-14 48.9903,-167.651 48.9903,-211.466"/>
</g>
<!-- Ender zcan&#45;&#45;Edmund Kieran Burke -->
<g id="edge41" class="edge"><title>Ender zcan&#45;&#45;Edmund Kieran Burke</title>
<path fill="none" stroke="black" stroke-width="2" d="M463.968,-38.8495C463.968,-26.7292 463.968,-13 463.968,-13 463.968,-13 46.9374,-13 46.9374,-13 46.9374,-13 46.9374,-168.796 46.9374,-212.005"/>
</g>
<!-- Ender zcan&#45;&#45;Edmund Kieran Burke -->
<g id="edge45" class="edge"><title>Ender zcan&#45;&#45;Edmund Kieran Burke</title>
<path fill="none" stroke="black" stroke-width="2" d="M488.224,-40.9556C488.224,-26.6651 488.224,-8 488.224,-8 488.224,-8 38.7256,-8 38.7256,-8 38.7256,-8 38.7256,-176.304 38.7256,-215.093"/>
</g>
<!-- Shahriar Asta -->
<g id="node7" class="node"><title>Shahriar Asta</title>
<ellipse fill="lightgrey" stroke="black" cx="321" cy="-140" rx="53.1217" ry="18"/>
<text text-anchor="middle" x="321" y="-136.6" font-family="Times New Roman,serif" font-size="13.00">Shahriar Asta</text>
</g>
<!-- Ender zcan&#45;&#45;Shahriar Asta -->
<g id="edge3" class="edge"><title>Ender zcan&#45;&#45;Shahriar Asta</title>
<path fill="none" stroke="black" stroke-width="2" d="M427.583,-47.9744C427.583,-40.8135 427.583,-32 427.583,-32 427.583,-32 242.944,-32 242.944,-32 242.944,-32 242.944,-142 242.944,-142 242.944,-142 254.15,-142 268.071,-142"/>
</g>
<!-- Ender zcan&#45;&#45;Shahriar Asta -->
<g id="edge7" class="edge"><title>Ender zcan&#45;&#45;Shahriar Asta</title>
<path fill="none" stroke="black" stroke-width="2" d="M425.309,-64.3567C425.309,-72.6526 425.309,-85 425.309,-85 425.309,-85 255.419,-85 255.419,-85 255.419,-85 255.419,-139 255.419,-139 255.419,-139 260.463,-139 267.754,-139"/>
</g>
<!-- Ender zcan&#45;&#45;Shahriar Asta -->
<g id="edge11" class="edge"><title>Ender zcan&#45;&#45;Shahriar Asta</title>
<path fill="none" stroke="black" stroke-width="2" d="M440.47,-71.6234C440.47,-81.9655 440.47,-94 440.47,-94 440.47,-94 266.746,-94 266.746,-94 266.746,-94 266.746,-156 266.746,-156 266.746,-156 282.058,-156 296.413,-156"/>
</g>
<!-- Ender zcan&#45;&#45;Shahriar Asta -->
<g id="edge15" class="edge"><title>Ender zcan&#45;&#45;Shahriar Asta</title>
<path fill="none" stroke="black" stroke-width="2" d="M436.68,-70.4318C436.68,-80.302 436.68,-92 436.68,-92 436.68,-92 265.553,-92 265.553,-92 265.553,-92 265.553,-153 265.553,-153 265.553,-153 273.845,-153 284.016,-153"/>
</g>
<!-- Ender zcan&#45;&#45;Shahriar Asta -->
<g id="edge19" class="edge"><title>Ender zcan&#45;&#45;Shahriar Asta</title>
<path fill="none" stroke="black" stroke-width="2" d="M432.889,-68.9138C432.889,-78.3662 432.889,-90 432.889,-90 432.889,-90 264.36,-90 264.36,-90 264.36,-90 264.36,-150 264.36,-150 264.36,-150 269.484,-150 276.65,-150"/>
</g>
<!-- Ender zcan&#45;&#45;Shahriar Asta -->
<g id="edge23" class="edge"><title>Ender zcan&#45;&#45;Shahriar Asta</title>
<path fill="none" stroke="black" stroke-width="2" d="M429.099,-67.1566C429.099,-75.8599 429.099,-87 429.099,-87 429.099,-87 263.167,-87 263.167,-87 263.167,-87 263.167,-147 263.167,-147 263.167,-147 266.559,-147 271.7,-147"/>
</g>
<!-- Ender zcan&#45;&#45;Shahriar Asta -->
<g id="edge27" class="edge"><title>Ender zcan&#45;&#45;Shahriar Asta</title>
<path fill="none" stroke="black" stroke-width="2" d="M463.21,-74.9676C463.21,-88.9521 463.21,-106 463.21,-106 463.21,-106 369.639,-106 369.639,-106 369.639,-106 369.639,-122.809 369.639,-132.789"/>
</g>
<!-- Ender zcan&#45;&#45;Shahriar Asta -->
<g id="edge31" class="edge"><title>Ender zcan&#45;&#45;Shahriar Asta</title>
<path fill="none" stroke="black" stroke-width="2" d="M459.42,-74.7687C459.42,-88.0783 459.42,-104 459.42,-104 459.42,-104 365.217,-104 365.217,-104 365.217,-104 365.217,-119.137 365.217,-129.78"/>
</g>
<!-- Ender zcan&#45;&#45;Shahriar Asta -->
<g id="edge35" class="edge"><title>Ender zcan&#45;&#45;Shahriar Asta</title>
<path fill="none" stroke="black" stroke-width="2" d="M455.63,-74.643C455.63,-86.8841 455.63,-101 455.63,-101 455.63,-101 360.796,-101 360.796,-101 360.796,-101 360.796,-116.618 360.796,-128.087"/>
</g>
<!-- Ender zcan&#45;&#45;Shahriar Asta -->
<g id="edge39" class="edge"><title>Ender zcan&#45;&#45;Shahriar Asta</title>
<path fill="none" stroke="black" stroke-width="2" d="M451.84,-74.083C451.84,-85.7109 451.84,-99 451.84,-99 451.84,-99 356.374,-99 356.374,-99 356.374,-99 356.374,-114.618 356.374,-126.575"/>
</g>
<!-- Ender zcan&#45;&#45;Shahriar Asta -->
<g id="edge43" class="edge"><title>Ender zcan&#45;&#45;Shahriar Asta</title>
<path fill="none" stroke="black" stroke-width="2" d="M448.05,-73.7318C448.05,-84.6929 448.05,-97 448.05,-97 448.05,-97 351.952,-97 351.952,-97 351.952,-97 351.952,-112.561 351.952,-124.961"/>
</g>
<!-- Ender zcan&#45;&#45;Shahriar Asta -->
<g id="edge47" class="edge"><title>Ender zcan&#45;&#45;Shahriar Asta</title>
<path fill="none" stroke="black" stroke-width="2" d="M433.647,-44.6092C433.647,-37.9126 433.647,-31 433.647,-31 433.647,-31 241.162,-31 241.162,-31 241.162,-31 241.162,-145 241.162,-145 241.162,-145 254.338,-145 269.985,-145"/>
</g>
<!-- Mustafa Msr -->
<g id="node9" class="node"><title>Mustafa Msr</title>
<ellipse fill="lightgrey" stroke="black" cx="842" cy="-140" rx="51.5957" ry="18"/>
<text text-anchor="middle" x="842" y="-136.6" font-family="Times New Roman,serif" font-size="13.00">Mustafa Msr</text>
</g>
<!-- Ender zcan&#45;&#45;Mustafa Msr -->
<g id="edge4" class="edge"><title>Ender zcan&#45;&#45;Mustafa Msr</title>
<path fill="none" stroke="black" stroke-width="2" d="M492.256,-42C582.808,-42 885.829,-42 885.829,-42 885.829,-42 885.829,-105.457 885.829,-130.245"/>
</g>
<!-- Ender zcan&#45;&#45;Mustafa Msr -->
<g id="edge8" class="edge"><title>Ender zcan&#45;&#45;Mustafa Msr</title>
<path fill="none" stroke="black" stroke-width="2" d="M500.972,-45C599.409,-45 877.86,-45 877.86,-45 877.86,-45 877.86,-100.687 877.86,-126.791"/>
</g>
<!-- Ender zcan&#45;&#45;Mustafa Msr -->
<g id="edge12" class="edge"><title>Ender zcan&#45;&#45;Mustafa Msr</title>
<path fill="none" stroke="black" stroke-width="2" d="M506.733,-48C608.377,-48 869.891,-48 869.891,-48 869.891,-48 869.891,-98.6775 869.891,-124.808"/>
</g>
<!-- Ender zcan&#45;&#45;Mustafa Msr -->
<g id="edge16" class="edge"><title>Ender zcan&#45;&#45;Mustafa Msr</title>
<path fill="none" stroke="black" stroke-width="2" d="M510.015,-51C612.371,-51 861.922,-51 861.922,-51 861.922,-51 861.922,-97.4787 861.922,-123.26"/>
</g>
<!-- Ender zcan&#45;&#45;Mustafa Msr -->
<g id="edge20" class="edge"><title>Ender zcan&#45;&#45;Mustafa Msr</title>
<path fill="none" stroke="black" stroke-width="2" d="M511.388,-53C613.029,-53 853.953,-53 853.953,-53 853.953,-53 853.953,-96.9726 853.953,-122.394"/>
</g>
<!-- Ender zcan&#45;&#45;Mustafa Msr -->
<g id="edge24" class="edge"><title>Ender zcan&#45;&#45;Mustafa Msr</title>
<path fill="none" stroke="black" stroke-width="2" d="M512.714,-56C613.513,-56 845.984,-56 845.984,-56 845.984,-56 845.984,-97.0682 845.984,-121.773"/>
</g>
<!-- Ender zcan&#45;&#45;Mustafa Msr -->
<g id="edge28" class="edge"><title>Ender zcan&#45;&#45;Mustafa Msr</title>
<path fill="none" stroke="black" stroke-width="2" d="M512.494,-59C611.566,-59 838.016,-59 838.016,-59 838.016,-59 838.016,-98.1602 838.016,-122.023"/>
</g>
<!-- Ender zcan&#45;&#45;Mustafa Msr -->
<g id="edge32" class="edge"><title>Ender zcan&#45;&#45;Mustafa Msr</title>
<path fill="none" stroke="black" stroke-width="2" d="M487.967,-73C560.766,-73 798.171,-73 798.171,-73 798.171,-73 798.171,-111.874 798.171,-130.401"/>
</g>
<!-- Ender zcan&#45;&#45;Mustafa Msr -->
<g id="edge36" class="edge"><title>Ender zcan&#45;&#45;Mustafa Msr</title>
<path fill="none" stroke="black" stroke-width="2" d="M510.792,-62C607.351,-62 830.047,-62 830.047,-62 830.047,-62 830.047,-99.2873 830.047,-122.301"/>
</g>
<!-- Ender zcan&#45;&#45;Mustafa Msr -->
<g id="edge40" class="edge"><title>Ender zcan&#45;&#45;Mustafa Msr</title>
<path fill="none" stroke="black" stroke-width="2" d="M509.126,-64C603.183,-64 822.078,-64 822.078,-64 822.078,-64 822.078,-100.743 822.078,-123.133"/>
</g>
<!-- Ender zcan&#45;&#45;Mustafa Msr -->
<g id="edge44" class="edge"><title>Ender zcan&#45;&#45;Mustafa Msr</title>
<path fill="none" stroke="black" stroke-width="2" d="M505.14,-67C595.309,-67 814.109,-67 814.109,-67 814.109,-67 814.109,-103.09 814.109,-124.519"/>
</g>
<!-- Ender zcan&#45;&#45;Mustafa Msr -->
<g id="edge48" class="edge"><title>Ender zcan&#45;&#45;Mustafa Msr</title>
<path fill="none" stroke="black" stroke-width="2" d="M498.601,-70C582.793,-70 806.14,-70 806.14,-70 806.14,-70 806.14,-106.556 806.14,-126.834"/>
</g>
<!-- Andrew J Parkes&#45;&#45;Edmund Kieran Burke -->
<g id="edge49" class="edge"><title>Andrew J Parkes&#45;&#45;Edmund Kieran Burke</title>
<path fill="none" stroke="black" stroke-width="2" d="M260.78,-63.029C260.78,-87.9982 260.78,-182 260.78,-182 260.78,-182 185.274,-182 185.274,-182 185.274,-182 185.274,-203.181 185.274,-215.095"/>
</g>
<!-- Andrew J Parkes&#45;&#45;Edmund Kieran Burke -->
<g id="edge53" class="edge"><title>Andrew J Parkes&#45;&#45;Edmund Kieran Burke</title>
<path fill="none" stroke="black" stroke-width="2" d="M375.851,-66.2913C375.851,-99.8752 375.851,-213 375.851,-213 375.851,-213 258.125,-213 179.948,-213"/>
</g>
<!-- Andrew J Parkes&#45;&#45;Edmund Kieran Burke -->
<g id="edge57" class="edge"><title>Andrew J Parkes&#45;&#45;Edmund Kieran Burke</title>
<path fill="none" stroke="black" stroke-width="2" d="M377.64,-65.5485C377.64,-98.5745 377.64,-216 377.64,-216 377.64,-216 265.946,-216 187.411,-216"/>
</g>
<!-- Andrew J Parkes&#45;&#45;Edmund Kieran Burke -->
<g id="edge61" class="edge"><title>Andrew J Parkes&#45;&#45;Edmund Kieran Burke</title>
<path fill="none" stroke="black" stroke-width="2" d="M379.43,-64.3362C379.43,-95.8325 379.43,-218 379.43,-218 379.43,-218 269.342,-218 190.431,-218"/>
</g>
<!-- Andrew J Parkes&#45;&#45;Edmund Kieran Burke -->
<g id="edge65" class="edge"><title>Andrew J Parkes&#45;&#45;Edmund Kieran Burke</title>
<path fill="none" stroke="black" stroke-width="2" d="M336.95,-39.335C336.95,-29.4115 336.95,-19 336.95,-19 336.95,-19 57.2021,-19 57.2021,-19 57.2021,-19 57.2021,-164.23 57.2021,-209.615"/>
</g>
<!-- Andrew J Parkes&#45;&#45;Edmund Kieran Burke -->
<g id="edge69" class="edge"><title>Andrew J Parkes&#45;&#45;Edmund Kieran Burke</title>
<path fill="none" stroke="black" stroke-width="2" d="M328.975,-38.9336C328.975,-29.5413 328.975,-20 328.975,-20 328.975,-20 59.255,-20 59.255,-20 59.255,-20 59.255,-163.184 59.255,-209.047"/>
</g>
<!-- Andrew J Parkes&#45;&#45;Edmund Kieran Burke -->
<g id="edge73" class="edge"><title>Andrew J Parkes&#45;&#45;Edmund Kieran Burke</title>
<path fill="none" stroke="black" stroke-width="2" d="M321,-39C321,-30 321,-21 321,-21 321,-21 61.308,-21 61.308,-21 61.308,-21 61.308,-162.816 61.308,-208.796"/>
</g>
<!-- Andrew J Parkes&#45;&#45;Edmund Kieran Burke -->
<g id="edge77" class="edge"><title>Andrew J Parkes&#45;&#45;Edmund Kieran Burke</title>
<path fill="none" stroke="black" stroke-width="2" d="M261.973,-64.0172C261.973,-94.1441 261.973,-211 261.973,-211 261.973,-211 214.521,-211 173,-211"/>
</g>
<!-- Andrew J Parkes&#45;&#45;Edmund Kieran Burke -->
<g id="edge81" class="edge"><title>Andrew J Parkes&#45;&#45;Edmund Kieran Burke</title>
<path fill="none" stroke="black" stroke-width="2" d="M381.22,-63.2287C381.22,-93.1853 381.22,-221 381.22,-221 381.22,-221 272.41,-221 193.14,-221"/>
</g>
<!-- Andrew J Parkes&#45;&#45;Edmund Kieran Burke -->
<g id="edge85" class="edge"><title>Andrew J Parkes&#45;&#45;Edmund Kieran Burke</title>
<path fill="none" stroke="black" stroke-width="2" d="M258.394,-60.6579C258.394,-66.6746 258.394,-78 258.394,-78 258.394,-78 168.851,-78 168.851,-78 168.851,-78 168.851,-174.183 168.851,-209.876"/>
</g>
<!-- Andrew J Parkes&#45;&#45;Edmund Kieran Burke -->
<g id="edge89" class="edge"><title>Andrew J Parkes&#45;&#45;Edmund Kieran Burke</title>
<path fill="none" stroke="black" stroke-width="2" d="M259.587,-61.8777C259.587,-68.6292 259.587,-80 259.587,-80 259.587,-80 177.063,-80 177.063,-80 177.063,-80 177.063,-178.068 177.063,-211.779"/>
</g>
<!-- Andrew J Parkes&#45;&#45;Edmund Kieran Burke -->
<g id="edge93" class="edge"><title>Andrew J Parkes&#45;&#45;Edmund Kieran Burke</title>
<path fill="none" stroke="black" stroke-width="2" d="M276.819,-70C264.122,-70 253.636,-70 253.636,-70 253.636,-70 253.636,-208 253.636,-208 253.636,-208 198.655,-208 157.204,-208"/>
</g>
<!-- Andrew J Parkes&#45;&#45;Shahriar Asta -->
<g id="edge50" class="edge"><title>Andrew J Parkes&#45;&#45;Shahriar Asta</title>
<path fill="none" stroke="black" stroke-width="2" d="M294.47,-73.3981C294.47,-88.1381 294.47,-109.646 294.47,-124.199"/>
</g>
<!-- Andrew J Parkes&#45;&#45;Shahriar Asta -->
<g id="edge54" class="edge"><title>Andrew J Parkes&#45;&#45;Shahriar Asta</title>
<path fill="none" stroke="black" stroke-width="2" d="M290.048,-73.0032C290.048,-88.0775 290.048,-110.48 290.048,-125.161"/>
</g>
<!-- Andrew J Parkes&#45;&#45;Shahriar Asta -->
<g id="edge58" class="edge"><title>Andrew J Parkes&#45;&#45;Shahriar Asta</title>
<path fill="none" stroke="black" stroke-width="2" d="M285.626,-72.2235C285.626,-87.7609 285.626,-111.646 285.626,-126.52"/>
</g>
<!-- Andrew J Parkes&#45;&#45;Shahriar Asta -->
<g id="edge62" class="edge"><title>Andrew J Parkes&#45;&#45;Shahriar Asta</title>
<path fill="none" stroke="black" stroke-width="2" d="M281.204,-71.0798C281.204,-87.0825 281.204,-112.931 281.204,-128.01"/>
</g>
<!-- Andrew J Parkes&#45;&#45;Shahriar Asta -->
<g id="edge66" class="edge"><title>Andrew J Parkes&#45;&#45;Shahriar Asta</title>
<path fill="none" stroke="black" stroke-width="2" d="M276.783,-70.3354C276.783,-86.8322 276.783,-114.572 276.783,-129.588"/>
</g>
<!-- Andrew J Parkes&#45;&#45;Shahriar Asta -->
<g id="edge70" class="edge"><title>Andrew J Parkes&#45;&#45;Shahriar Asta</title>
<path fill="none" stroke="black" stroke-width="2" d="M272.361,-68.8919C272.361,-86.2839 272.361,-118.152 272.361,-132.568"/>
</g>
<!-- Andrew J Parkes&#45;&#45;Shahriar Asta -->
<g id="edge74" class="edge"><title>Andrew J Parkes&#45;&#45;Shahriar Asta</title>
<path fill="none" stroke="black" stroke-width="2" d="M321,-75.0098C321,-88.8363 321,-107.85 321,-121.739"/>
</g>
<!-- Andrew J Parkes&#45;&#45;Shahriar Asta -->
<g id="edge78" class="edge"><title>Andrew J Parkes&#45;&#45;Shahriar Asta</title>
<path fill="none" stroke="black" stroke-width="2" d="M298.891,-74.1977C298.891,-88.6324 298.891,-109.124 298.891,-123.391"/>
</g>
<!-- Andrew J Parkes&#45;&#45;Shahriar Asta -->
<g id="edge82" class="edge"><title>Andrew J Parkes&#45;&#45;Shahriar Asta</title>
<path fill="none" stroke="black" stroke-width="2" d="M303.313,-74.6022C303.313,-88.8779 303.313,-108.877 303.313,-122.991"/>
</g>
<!-- Andrew J Parkes&#45;&#45;Shahriar Asta -->
<g id="edge86" class="edge"><title>Andrew J Parkes&#45;&#45;Shahriar Asta</title>
<path fill="none" stroke="black" stroke-width="2" d="M307.735,-75.0098C307.735,-89.027 307.735,-108.375 307.735,-122.311"/>
</g>
<!-- Andrew J Parkes&#45;&#45;Shahriar Asta -->
<g id="edge90" class="edge"><title>Andrew J Parkes&#45;&#45;Shahriar Asta</title>
<path fill="none" stroke="black" stroke-width="2" d="M312.157,-75.0098C312.157,-88.9316 312.157,-108.112 312.157,-122.025"/>
</g>
<!-- Andrew J Parkes&#45;&#45;Shahriar Asta -->
<g id="edge94" class="edge"><title>Andrew J Parkes&#45;&#45;Shahriar Asta</title>
<path fill="none" stroke="black" stroke-width="2" d="M316.578,-75.0098C316.578,-88.9316 316.578,-108.112 316.578,-122.025"/>
</g>
<!-- Daniel Karapetyan -->
<g id="node8" class="node"><title>Daniel Karapetyan</title>
<ellipse fill="lightgrey" stroke="black" cx="467" cy="-140" rx="69.4688" ry="18"/>
<text text-anchor="middle" x="467" y="-136.6" font-family="Times New Roman,serif" font-size="13.00">Daniel Karapetyan</text>
</g>
<!-- Andrew J Parkes&#45;&#45;Daniel Karapetyan -->
<g id="edge51" class="edge"><title>Andrew J Parkes&#45;&#45;Daniel Karapetyan</title>
<path fill="none" stroke="black" stroke-width="2" d="M343.109,-74.0859C343.109,-89.9063 343.109,-111 343.109,-111 343.109,-111 407.517,-111 407.517,-111 407.517,-111 407.517,-122.047 407.517,-130.504"/>
</g>
<!-- Andrew J Parkes&#45;&#45;Daniel Karapetyan -->
<g id="edge55" class="edge"><title>Andrew J Parkes&#45;&#45;Daniel Karapetyan</title>
<path fill="none" stroke="black" stroke-width="2" d="M383.01,-61.3482C383.01,-73.6815 383.01,-108 383.01,-108 383.01,-108 409.517,-108 409.517,-108 409.517,-108 409.517,-120.5 409.517,-129.875"/>
</g>
<!-- Andrew J Parkes&#45;&#45;Daniel Karapetyan -->
<g id="edge59" class="edge"><title>Andrew J Parkes&#45;&#45;Daniel Karapetyan</title>
<path fill="none" stroke="black" stroke-width="2" d="M338.687,-74.4118C338.687,-90.8507 338.687,-113 338.687,-113 338.687,-113 405.517,-113 405.517,-113 405.517,-113 405.517,-123.547 405.517,-131.457"/>
</g>
<!-- Andrew J Parkes&#45;&#45;Daniel Karapetyan -->
<g id="edge63" class="edge"><title>Andrew J Parkes&#45;&#45;Daniel Karapetyan</title>
<path fill="none" stroke="black" stroke-width="2" d="M334.265,-74.7171C334.265,-91.7738 334.265,-115 334.265,-115 334.265,-115 403.517,-115 403.517,-115 403.517,-115 403.517,-125.26 403.517,-132.634"/>
</g>
<!-- Andrew J Parkes&#45;&#45;Daniel Karapetyan -->
<g id="edge67" class="edge"><title>Andrew J Parkes&#45;&#45;Daniel Karapetyan</title>
<path fill="none" stroke="black" stroke-width="2" d="M329.843,-74.9721C329.843,-92.9656 329.843,-118 329.843,-118 329.843,-118 401.516,-118 401.516,-118 401.516,-118 401.516,-127.029 401.516,-133.518"/>
</g>
<!-- Andrew J Parkes&#45;&#45;Daniel Karapetyan -->
<g id="edge71" class="edge"><title>Andrew J Parkes&#45;&#45;Daniel Karapetyan</title>
<path fill="none" stroke="black" stroke-width="2" d="M325.422,-75.2222C325.422,-93.8285 325.422,-120 325.422,-120 325.422,-120 399.516,-120 399.516,-120 399.516,-120 399.516,-129.453 399.516,-135.361"/>
</g>
<!-- Andrew J Parkes&#45;&#45;Daniel Karapetyan -->
<g id="edge75" class="edge"><title>Andrew J Parkes&#45;&#45;Daniel Karapetyan</title>
<path fill="none" stroke="black" stroke-width="2" d="M347.53,-73.6134C347.53,-78.709 347.53,-83 347.53,-83 347.53,-83 444.26,-83 444.26,-83 444.26,-83 444.26,-106.108 444.26,-122.898"/>
</g>
<!-- Andrew J Parkes&#45;&#45;Daniel Karapetyan -->
<g id="edge79" class="edge"><title>Andrew J Parkes&#45;&#45;Daniel Karapetyan</title>
<path fill="none" stroke="black" stroke-width="2" d="M344.925,-40.071C344.925,-36.0996 344.925,-33 344.925,-33 344.925,-33 419.519,-33 419.519,-33 419.519,-33 419.519,-97.6562 419.519,-126.448"/>
</g>
<!-- Andrew J Parkes&#45;&#45;Daniel Karapetyan -->
<g id="edge83" class="edge"><title>Andrew J Parkes&#45;&#45;Daniel Karapetyan</title>
<path fill="none" stroke="black" stroke-width="2" d="M352.9,-41.0116C352.9,-37.5996 352.9,-35 352.9,-35 352.9,-35 417.519,-35 417.519,-35 417.519,-35 417.519,-99.0869 417.519,-127.125"/>
</g>
<!-- Andrew J Parkes&#45;&#45;Daniel Karapetyan -->
<g id="edge87" class="edge"><title>Andrew J Parkes&#45;&#45;Daniel Karapetyan</title>
<path fill="none" stroke="black" stroke-width="2" d="M360.875,-42.6445C360.875,-38.9531 360.875,-36 360.875,-36 360.875,-36 415.518,-36 415.518,-36 415.518,-36 415.518,-100.113 415.518,-127.661"/>
</g>
<!-- Andrew J Parkes&#45;&#45;Daniel Karapetyan -->
<g id="edge91" class="edge"><title>Andrew J Parkes&#45;&#45;Daniel Karapetyan</title>
<path fill="none" stroke="black" stroke-width="2" d="M368.849,-44.6753C368.849,-40.5596 368.849,-37 368.849,-37 368.849,-37 413.518,-37 413.518,-37 413.518,-37 413.518,-101.13 413.518,-128.185"/>
</g>
<!-- Andrew J Parkes&#45;&#45;Daniel Karapetyan -->
<g id="edge95" class="edge"><title>Andrew J Parkes&#45;&#45;Daniel Karapetyan</title>
<path fill="none" stroke="black" stroke-width="2" d="M376.824,-47.9452C376.824,-43.0515 376.824,-38 376.824,-38 376.824,-38 411.518,-38 411.518,-38 411.518,-38 411.518,-102.771 411.518,-129.084"/>
</g>
<!-- Rhyd Lewis -->
<g id="node10" class="node"><title>Rhyd Lewis</title>
<ellipse fill="lightgrey" stroke="black" cx="112" cy="-140" rx="48.7785" ry="18"/>
<text text-anchor="middle" x="112" y="-136.6" font-family="Times New Roman,serif" font-size="13.00">Rhyd Lewis</text>
</g>
<!-- Andrew J Parkes&#45;&#45;Rhyd Lewis -->
<g id="edge52" class="edge"><title>Andrew J Parkes&#45;&#45;Rhyd Lewis</title>
<path fill="none" stroke="black" stroke-width="2" d="M313.025,-38.8056C313.025,-30.7218 313.025,-23 313.025,-23 313.025,-23 67.5184,-23 67.5184,-23 67.5184,-23 67.5184,-107.067 67.5184,-132.681"/>
</g>
<!-- Andrew J Parkes&#45;&#45;Rhyd Lewis -->
<g id="edge56" class="edge"><title>Andrew J Parkes&#45;&#45;Rhyd Lewis</title>
<path fill="none" stroke="black" stroke-width="2" d="M305.05,-39.3407C305.05,-31.4947 305.05,-24 305.05,-24 305.05,-24 71.6758,-24 71.6758,-24 71.6758,-24 71.6758,-101.316 71.6758,-129.706"/>
</g>
<!-- Andrew J Parkes&#45;&#45;Rhyd Lewis -->
<g id="edge60" class="edge"><title>Andrew J Parkes&#45;&#45;Rhyd Lewis</title>
<path fill="none" stroke="black" stroke-width="2" d="M297.075,-40.2502C297.075,-32.5078 297.075,-25 297.075,-25 297.075,-25 75.8333,-25 75.8333,-25 75.8333,-25 75.8333,-98.0261 75.8333,-127.693"/>
</g>
<!-- Andrew J Parkes&#45;&#45;Rhyd Lewis -->
<g id="edge64" class="edge"><title>Andrew J Parkes&#45;&#45;Rhyd Lewis</title>
<path fill="none" stroke="black" stroke-width="2" d="M289.1,-41.1367C289.1,-33.5097 289.1,-26 289.1,-26 289.1,-26 79.9908,-26 79.9908,-26 79.9908,-26 79.9908,-95.5801 79.9908,-126.021"/>
</g>
<!-- Andrew J Parkes&#45;&#45;Rhyd Lewis -->
<g id="edge68" class="edge"><title>Andrew J Parkes&#45;&#45;Rhyd Lewis</title>
<path fill="none" stroke="black" stroke-width="2" d="M281.125,-42.7029C281.125,-34.9761 281.125,-27 281.125,-27 281.125,-27 84.1482,-27 84.1482,-27 84.1482,-27 84.1482,-94.5972 84.1482,-125.227"/>
</g>
<!-- Andrew J Parkes&#45;&#45;Rhyd Lewis -->
<g id="edge72" class="edge"><title>Andrew J Parkes&#45;&#45;Rhyd Lewis</title>
<path fill="none" stroke="black" stroke-width="2" d="M273.151,-44.963C273.151,-37.374 273.151,-29 273.151,-29 273.151,-29 88.3057,-29 88.3057,-29 88.3057,-29 88.3057,-93.4039 88.3057,-124.096"/>
</g>
<!-- Andrew J Parkes&#45;&#45;Rhyd Lewis -->
<g id="edge76" class="edge"><title>Andrew J Parkes&#45;&#45;Rhyd Lewis</title>
<path fill="none" stroke="black" stroke-width="2" d="M273.127,-45C257.803,-45 244.726,-45 244.726,-45 244.726,-45 244.726,-125 244.726,-125 244.726,-125 178.01,-125 139.179,-125"/>
</g>
<!-- Andrew J Parkes&#45;&#45;Rhyd Lewis -->
<g id="edge80" class="edge"><title>Andrew J Parkes&#45;&#45;Rhyd Lewis</title>
<path fill="none" stroke="black" stroke-width="2" d="M265.176,-48.1592C265.176,-40.2849 265.176,-30 265.176,-30 265.176,-30 92.4631,-30 92.4631,-30 92.4631,-30 92.4631,-92.5212 92.4631,-123.293"/>
</g>
<!-- Andrew J Parkes&#45;&#45;Rhyd Lewis -->
<g id="edge84" class="edge"><title>Andrew J Parkes&#45;&#45;Rhyd Lewis</title>
<path fill="none" stroke="black" stroke-width="2" d="M261.943,-50C252.902,-50 246.508,-50 246.508,-50 246.508,-50 246.508,-128 246.508,-128 246.508,-128 188.235,-128 148.4,-128"/>
</g>
<!-- Andrew J Parkes&#45;&#45;Rhyd Lewis -->
<g id="edge88" class="edge"><title>Andrew J Parkes&#45;&#45;Rhyd Lewis</title>
<path fill="none" stroke="black" stroke-width="2" d="M257.499,-55C251.895,-55 248.29,-55 248.29,-55 248.29,-55 248.29,-131 248.29,-131 248.29,-131 194.384,-131 154.376,-131"/>
</g>
<!-- Andrew J Parkes&#45;&#45;Rhyd Lewis -->
<g id="edge92" class="edge"><title>Andrew J Parkes&#45;&#45;Rhyd Lewis</title>
<path fill="none" stroke="black" stroke-width="2" d="M257.934,-60C253.112,-60 250.072,-60 250.072,-60 250.072,-60 250.072,-134 250.072,-134 250.072,-134 198.141,-134 157.976,-134"/>
</g>
<!-- Andrew J Parkes&#45;&#45;Rhyd Lewis -->
<g id="edge96" class="edge"><title>Andrew J Parkes&#45;&#45;Rhyd Lewis</title>
<path fill="none" stroke="black" stroke-width="2" d="M263.584,-65C256.591,-65 251.854,-65 251.854,-65 251.854,-65 251.854,-136 251.854,-136 251.854,-136 200.253,-136 159.739,-136"/>
</g>
<!-- Warren G. Jackson -->
<g id="node3" class="node"><title>Warren G. Jackson</title>
<ellipse fill="lightgrey" stroke="black" cx="168" cy="-57" rx="71.259" ry="18"/>
<text text-anchor="middle" x="168" y="-53.6" font-family="Times New Roman,serif" font-size="13.00">Warren G. Jackson</text>
</g>
<!-- Ed Keedwell -->
<g id="node4" class="node"><title>Ed Keedwell</title>
<ellipse fill="lightgrey" stroke="black" cx="1155" cy="-57" rx="51.5957" ry="18"/>
<text text-anchor="middle" x="1155" y="-53.6" font-family="Times New Roman,serif" font-size="13.00">Ed Keedwell</text>
</g>
<!-- Dragan Savic -->
<g id="node5" class="node"><title>Dragan Savic</title>
<ellipse fill="lightgrey" stroke="black" cx="1155" cy="-140" rx="52.3583" ry="18"/>
<text text-anchor="middle" x="1155" y="-136.6" font-family="Times New Roman,serif" font-size="13.00">Dragan Savic</text>
</g>
<!-- Ed Keedwell&#45;&#45;Dragan Savic -->
<g id="edge97" class="edge"><title>Ed Keedwell&#45;&#45;Dragan Savic</title>
<path fill="none" stroke="black" stroke-width="2" d="M1116.15,-69.2469C1116.15,-84.9395 1116.15,-111.986 1116.15,-127.703"/>
</g>
<!-- Ed Keedwell&#45;&#45;Dragan Savic -->
<g id="edge98" class="edge"><title>Ed Keedwell&#45;&#45;Dragan Savic</title>
<path fill="none" stroke="black" stroke-width="2" d="M1129.1,-72.6117C1129.1,-87.3568 1129.1,-109.362 1129.1,-124.176"/>
</g>
<!-- Ed Keedwell&#45;&#45;Dragan Savic -->
<g id="edge99" class="edge"><title>Ed Keedwell&#45;&#45;Dragan Savic</title>
<path fill="none" stroke="black" stroke-width="2" d="M1142.05,-74.6022C1142.05,-88.6875 1142.05,-108.345 1142.05,-122.423"/>
</g>
<!-- Ed Keedwell&#45;&#45;Dragan Savic -->
<g id="edge100" class="edge"><title>Ed Keedwell&#45;&#45;Dragan Savic</title>
<path fill="none" stroke="black" stroke-width="2" d="M1155,-75.0098C1155,-88.8363 1155,-107.85 1155,-121.739"/>
</g>
<!-- Ed Keedwell&#45;&#45;Dragan Savic -->
<g id="edge101" class="edge"><title>Ed Keedwell&#45;&#45;Dragan Savic</title>
<path fill="none" stroke="black" stroke-width="2" d="M1167.95,-74.6022C1167.95,-88.6875 1167.95,-108.345 1167.95,-122.423"/>
</g>
<!-- Ed Keedwell&#45;&#45;Dragan Savic -->
<g id="edge102" class="edge"><title>Ed Keedwell&#45;&#45;Dragan Savic</title>
<path fill="none" stroke="black" stroke-width="2" d="M1180.9,-72.6117C1180.9,-87.3568 1180.9,-109.362 1180.9,-124.176"/>
</g>
<!-- Ed Keedwell&#45;&#45;Dragan Savic -->
<g id="edge103" class="edge"><title>Ed Keedwell&#45;&#45;Dragan Savic</title>
<path fill="none" stroke="black" stroke-width="2" d="M1193.85,-69.2469C1193.85,-84.9395 1193.85,-111.986 1193.85,-127.703"/>
</g>
<!-- Shahriar Asta&#45;&#45;Daniel Karapetyan -->
<g id="edge104" class="edge"><title>Shahriar Asta&#45;&#45;Daniel Karapetyan</title>
<path fill="none" stroke="black" stroke-width="2" d="M371.245,-134C380.978,-134 391.311,-134 401.45,-134"/>
</g>
<!-- Shahriar Asta&#45;&#45;Daniel Karapetyan -->
<g id="edge105" class="edge"><title>Shahriar Asta&#45;&#45;Daniel Karapetyan</title>
<path fill="none" stroke="black" stroke-width="2" d="M367.195,-131C379.727,-131 393.482,-131 406.668,-131"/>
</g>
<!-- Shahriar Asta&#45;&#45;Daniel Karapetyan -->
<g id="edge106" class="edge"><title>Shahriar Asta&#45;&#45;Daniel Karapetyan</title>
<path fill="none" stroke="black" stroke-width="2" d="M360.895,-128C377.612,-128 397.268,-128 415.089,-128"/>
</g>
<!-- Shahriar Asta&#45;&#45;Daniel Karapetyan -->
<g id="edge107" class="edge"><title>Shahriar Asta&#45;&#45;Daniel Karapetyan</title>
<path fill="none" stroke="black" stroke-width="2" d="M350.545,-125C372.959,-125 403.967,-125 428.351,-125"/>
</g>
<!-- Shahriar Asta&#45;&#45;Daniel Karapetyan -->
<g id="edge108" class="edge"><title>Shahriar Asta&#45;&#45;Daniel Karapetyan</title>
<path fill="none" stroke="black" stroke-width="2" d="M345.437,-156C370.034,-156 408.092,-156 435.065,-156"/>
</g>
<!-- Shahriar Asta&#45;&#45;Daniel Karapetyan -->
<g id="edge109" class="edge"><title>Shahriar Asta&#45;&#45;Daniel Karapetyan</title>
<path fill="none" stroke="black" stroke-width="2" d="M372.885,-136C381.409,-136 390.354,-136 399.196,-136"/>
</g>
<!-- Shahriar Asta&#45;&#45;Daniel Karapetyan -->
<g id="edge110" class="edge"><title>Shahriar Asta&#45;&#45;Daniel Karapetyan</title>
<path fill="none" stroke="black" stroke-width="2" d="M374.122,-139C381.705,-139 389.597,-139 397.437,-139"/>
</g>
<!-- Shahriar Asta&#45;&#45;Daniel Karapetyan -->
<g id="edge111" class="edge"><title>Shahriar Asta&#45;&#45;Daniel Karapetyan</title>
<path fill="none" stroke="black" stroke-width="2" d="M374.122,-142C381.868,-142 389.937,-142 397.942,-142"/>
</g>
<!-- Shahriar Asta&#45;&#45;Daniel Karapetyan -->
<g id="edge112" class="edge"><title>Shahriar Asta&#45;&#45;Daniel Karapetyan</title>
<path fill="none" stroke="black" stroke-width="2" d="M372.064,-145C381.109,-145 390.65,-145 400.056,-145"/>
</g>
<!-- Shahriar Asta&#45;&#45;Daniel Karapetyan -->
<g id="edge113" class="edge"><title>Shahriar Asta&#45;&#45;Daniel Karapetyan</title>
<path fill="none" stroke="black" stroke-width="2" d="M370.022,-147C380.543,-147 391.811,-147 402.809,-147"/>
</g>
<!-- Shahriar Asta&#45;&#45;Daniel Karapetyan -->
<g id="edge114" class="edge"><title>Shahriar Asta&#45;&#45;Daniel Karapetyan</title>
<path fill="none" stroke="black" stroke-width="2" d="M365.201,-150C379.049,-150 394.544,-150 409.186,-150"/>
</g>
<!-- Shahriar Asta&#45;&#45;Daniel Karapetyan -->
<g id="edge115" class="edge"><title>Shahriar Asta&#45;&#45;Daniel Karapetyan</title>
<path fill="none" stroke="black" stroke-width="2" d="M357.842,-153C376.342,-153 398.987,-153 418.846,-153"/>
</g>
<!-- Daniel Karapetyan&#45;&#45;Ender zcan -->
<g id="edge116" class="edge"><title>Daniel Karapetyan&#45;&#45;Ender zcan</title>
<path fill="none" stroke="black" stroke-width="2" d="M508.691,-125.543C508.691,-107.707 508.691,-78.0698 508.691,-64.3657"/>
</g>
<!-- Daniel Karapetyan&#45;&#45;Ender zcan -->
<g id="edge117" class="edge"><title>Daniel Karapetyan&#45;&#45;Ender zcan</title>
<path fill="none" stroke="black" stroke-width="2" d="M504.901,-124.777C504.901,-108.116 504.901,-81.8567 504.901,-67.4018"/>
</g>
<!-- Daniel Karapetyan&#45;&#45;Ender zcan -->
<g id="edge118" class="edge"><title>Daniel Karapetyan&#45;&#45;Ender zcan</title>
<path fill="none" stroke="black" stroke-width="2" d="M501.111,-123.997C501.111,-107.886 501.111,-83.4055 501.111,-68.925"/>
</g>
<!-- Daniel Karapetyan&#45;&#45;Ender zcan -->
<g id="edge119" class="edge"><title>Daniel Karapetyan&#45;&#45;Ender zcan</title>
<path fill="none" stroke="black" stroke-width="2" d="M497.32,-123.602C497.32,-108.106 497.32,-85.1308 497.32,-70.6186"/>
</g>
<!-- Daniel Karapetyan&#45;&#45;Ender zcan -->
<g id="edge120" class="edge"><title>Daniel Karapetyan&#45;&#45;Ender zcan</title>
<path fill="none" stroke="black" stroke-width="2" d="M493.53,-123.204C493.53,-108.14 493.53,-86.25 493.53,-71.8238"/>
</g>
<!-- Daniel Karapetyan&#45;&#45;Ender zcan -->
<g id="edge121" class="edge"><title>Daniel Karapetyan&#45;&#45;Ender zcan</title>
<path fill="none" stroke="black" stroke-width="2" d="M489.74,-122.802C489.74,-108.083 489.74,-87.065 489.74,-72.7719"/>
</g>
<!-- Daniel Karapetyan&#45;&#45;Ender zcan -->
<g id="edge122" class="edge"><title>Daniel Karapetyan&#45;&#45;Ender zcan</title>
<path fill="none" stroke="black" stroke-width="2" d="M485.95,-122.398C485.95,-107.932 485.95,-87.5889 485.95,-73.4477"/>
</g>
<!-- Daniel Karapetyan&#45;&#45;Ender zcan -->
<g id="edge123" class="edge"><title>Daniel Karapetyan&#45;&#45;Ender zcan</title>
<path fill="none" stroke="black" stroke-width="2" d="M482.16,-122.398C482.16,-108.122 482.16,-88.1232 482.16,-74.0091"/>
</g>
<!-- Daniel Karapetyan&#45;&#45;Ender zcan -->
<g id="edge124" class="edge"><title>Daniel Karapetyan&#45;&#45;Ender zcan</title>
<path fill="none" stroke="black" stroke-width="2" d="M478.37,-121.99C478.37,-107.973 478.37,-88.6246 478.37,-74.6895"/>
</g>
<!-- Daniel Karapetyan&#45;&#45;Ender zcan -->
<g id="edge125" class="edge"><title>Daniel Karapetyan&#45;&#45;Ender zcan</title>
<path fill="none" stroke="black" stroke-width="2" d="M474.58,-121.99C474.58,-108.068 474.58,-88.8876 474.58,-74.9746"/>
</g>
<!-- Daniel Karapetyan&#45;&#45;Ender zcan -->
<g id="edge126" class="edge"><title>Daniel Karapetyan&#45;&#45;Ender zcan</title>
<path fill="none" stroke="black" stroke-width="2" d="M470.79,-121.99C470.79,-108.068 470.79,-88.8876 470.79,-74.9746"/>
</g>
<!-- Daniel Karapetyan&#45;&#45;Ender zcan -->
<g id="edge127" class="edge"><title>Daniel Karapetyan&#45;&#45;Ender zcan</title>
<path fill="none" stroke="black" stroke-width="2" d="M467,-121.99C467,-108.164 467,-89.1501 467,-75.2612"/>
</g>
<!-- Mustafa Msr&#45;&#45;Edmund Kieran Burke -->
<g id="edge128" class="edge"><title>Mustafa Msr&#45;&#45;Edmund Kieran Burke</title>
<path fill="none" stroke="black" stroke-width="2" d="M854.949,-157.681C854.949,-184.91 854.949,-234 854.949,-234 854.949,-234 357.387,-234 176.632,-234"/>
</g>
<!-- Mustafa Msr&#45;&#45;Edmund Kieran Burke -->
<g id="edge129" class="edge"><title>Mustafa Msr&#45;&#45;Edmund Kieran Burke</title>
<path fill="none" stroke="black" stroke-width="2" d="M842,-158.415C842,-185.006 842,-231 842,-231 842,-231 369.882,-231 185,-231"/>
</g>
<!-- Mustafa Msr&#45;&#45;Edmund Kieran Burke -->
<g id="edge130" class="edge"><title>Mustafa Msr&#45;&#45;Edmund Kieran Burke</title>
<path fill="none" stroke="black" stroke-width="2" d="M829.051,-157.584C829.051,-183.521 829.051,-229 829.051,-229 829.051,-229 374.274,-229 189.077,-229"/>
</g>
<!-- Mustafa Msr&#45;&#45;Edmund Kieran Burke -->
<g id="edge131" class="edge"><title>Mustafa Msr&#45;&#45;Edmund Kieran Burke</title>
<path fill="none" stroke="black" stroke-width="2" d="M880.848,-152.139C880.848,-178.575 880.848,-239 880.848,-239 880.848,-239 303.314,-239 149.343,-239"/>
</g>
<!-- Mustafa Msr&#45;&#45;Edmund Kieran Burke -->
<g id="edge132" class="edge"><title>Mustafa Msr&#45;&#45;Edmund Kieran Burke</title>
<path fill="none" stroke="black" stroke-width="2" d="M816.101,-155.774C816.101,-180.601 816.101,-226 816.101,-226 816.101,-226 377.171,-226 192.426,-226"/>
</g>
<!-- Mustafa Msr&#45;&#45;Edmund Kieran Burke -->
<g id="edge133" class="edge"><title>Mustafa Msr&#45;&#45;Edmund Kieran Burke</title>
<path fill="none" stroke="black" stroke-width="2" d="M803.152,-152.247C803.152,-175.335 803.152,-223 803.152,-223 803.152,-223 376.547,-223 193.657,-223"/>
</g>
<!-- Mustafa Msr&#45;&#45;Edmund Kieran Burke -->
<g id="edge134" class="edge"><title>Mustafa Msr&#45;&#45;Edmund Kieran Burke</title>
<path fill="none" stroke="black" stroke-width="2" d="M867.899,-155.852C867.899,-183.119 867.899,-236 867.899,-236 867.899,-236 343.994,-236 168.506,-236"/>
</g>
<!-- Rhyd Lewis&#45;&#45;Edmund Kieran Burke -->
<g id="edge135" class="edge"><title>Rhyd Lewis&#45;&#45;Edmund Kieran Burke</title>
<path fill="none" stroke="black" stroke-width="2" d="M153.156,-149.847C153.156,-164.018 153.156,-190.311 153.156,-207.213"/>
</g>
<!-- Rhyd Lewis&#45;&#45;Edmund Kieran Burke -->
<g id="edge136" class="edge"><title>Rhyd Lewis&#45;&#45;Edmund Kieran Burke</title>
<path fill="none" stroke="black" stroke-width="2" d="M145.673,-153.335C145.673,-167.816 145.673,-190.959 145.673,-206.555"/>
</g>
<!-- Rhyd Lewis&#45;&#45;Edmund Kieran Burke -->
<g id="edge137" class="edge"><title>Rhyd Lewis&#45;&#45;Edmund Kieran Burke</title>
<path fill="none" stroke="black" stroke-width="2" d="M138.19,-155.223C138.19,-169.544 138.19,-190.956 138.19,-205.868"/>
</g>
<!-- Rhyd Lewis&#45;&#45;Edmund Kieran Burke -->
<g id="edge138" class="edge"><title>Rhyd Lewis&#45;&#45;Edmund Kieran Burke</title>
<path fill="none" stroke="black" stroke-width="2" d="M130.707,-156.796C130.707,-170.912 130.707,-191.024 130.707,-205.369"/>
</g>
<!-- Rhyd Lewis&#45;&#45;Edmund Kieran Burke -->
<g id="edge139" class="edge"><title>Rhyd Lewis&#45;&#45;Edmund Kieran Burke</title>
<path fill="none" stroke="black" stroke-width="2" d="M123.224,-157.602C123.224,-171.592 123.224,-191.079 123.224,-205.137"/>
</g>
<!-- Rhyd Lewis&#45;&#45;Edmund Kieran Burke -->
<g id="edge140" class="edge"><title>Rhyd Lewis&#45;&#45;Edmund Kieran Burke</title>
<path fill="none" stroke="black" stroke-width="2" d="M115.741,-158.01C115.741,-171.836 115.741,-190.85 115.741,-204.739"/>
</g>
<!-- Rhyd Lewis&#45;&#45;Edmund Kieran Burke -->
<g id="edge141" class="edge"><title>Rhyd Lewis&#45;&#45;Edmund Kieran Burke</title>
<path fill="none" stroke="black" stroke-width="2" d="M108.259,-158.01C108.259,-171.836 108.259,-190.85 108.259,-204.739"/>
</g>
<!-- Rhyd Lewis&#45;&#45;Edmund Kieran Burke -->
<g id="edge142" class="edge"><title>Rhyd Lewis&#45;&#45;Edmund Kieran Burke</title>
<path fill="none" stroke="black" stroke-width="2" d="M100.776,-157.602C100.776,-171.592 100.776,-191.079 100.776,-205.137"/>
</g>
<!-- Rhyd Lewis&#45;&#45;Edmund Kieran Burke -->
<g id="edge143" class="edge"><title>Rhyd Lewis&#45;&#45;Edmund Kieran Burke</title>
<path fill="none" stroke="black" stroke-width="2" d="M93.2927,-156.796C93.2927,-170.912 93.2927,-191.024 93.2927,-205.369"/>
</g>
<!-- Rhyd Lewis&#45;&#45;Edmund Kieran Burke -->
<g id="edge144" class="edge"><title>Rhyd Lewis&#45;&#45;Edmund Kieran Burke</title>
<path fill="none" stroke="black" stroke-width="2" d="M85.8097,-155.223C85.8097,-169.544 85.8097,-190.956 85.8097,-205.868"/>
</g>
<!-- Rhyd Lewis&#45;&#45;Edmund Kieran Burke -->
<g id="edge145" class="edge"><title>Rhyd Lewis&#45;&#45;Edmund Kieran Burke</title>
<path fill="none" stroke="black" stroke-width="2" d="M78.3268,-153.335C78.3268,-167.816 78.3268,-190.959 78.3268,-206.555"/>
</g>
<!-- Rhyd Lewis&#45;&#45;Edmund Kieran Burke -->
<g id="edge146" class="edge"><title>Rhyd Lewis&#45;&#45;Edmund Kieran Burke</title>
<path fill="none" stroke="black" stroke-width="2" d="M70.8439,-149.847C70.8439,-164.018 70.8439,-190.311 70.8439,-207.213"/>
</g>
</g>
</svg>
